<svg xmlns="http://www.w3.org/2000/svg" viewBox="-151 702.31 292.604 45">
    <path d="M-76.03 704.423c.264 0 .534.061.81.18.275.121.522.259.738.414.216.156.396.33.54.522s.216.359.216.504c0 .072-.012.12-.036.144-.697.696-1.561 1.729-2.592 3.097a127.676 127.676 0 00-3.384 4.733 175.85 175.85 0 00-3.78 5.778 285.474 285.474 0 00-3.78 6.192c.264.264.45.563.558.899.108.337.162.66.162.972 0 .265-.036.486-.108.666-.072.181-.18.271-.324.271-.121 0-.294-.108-.522-.324a4.427 4.427 0 00-.846-.612 166.742 166.742 0 00-2.484 4.519 86.281 86.281 0 00-1.998 3.996 35.942 35.942 0 00-1.332 3.204c-.324.923-.486 1.638-.486 2.142 0 .408-.192.612-.576.612-.264 0-.558-.09-.882-.271a4.608 4.608 0 01-.954-.72 3.774 3.774 0 01-.774-1.08 3.046 3.046 0 01-.306-1.35c0-.312.174-.847.522-1.603.348-.756.816-1.68 1.404-2.771a100.443 100.443 0 012.088-3.672 192.888 192.888 0 012.61-4.267 50.182 50.182 0 00-3.582-.936 50.245 50.245 0 00-3.978-.721c-1.776 1.608-3.552 3.199-5.328 4.771s-3.498 3.078-5.166 4.518-3.264 2.772-4.788 3.996a82.098 82.098 0 01-4.212 3.187c-1.284.899-2.418 1.607-3.402 2.124-.984.516-1.776.773-2.376.773-.648 0-1.2-.107-1.656-.323a3.427 3.427 0 01-1.116-.811 3.004 3.004 0 01-.612-1.008 2.929 2.929 0 01-.18-.954c0-.24.036-.438.108-.594s.18-.234.324-.234c.144 0 .306.09.486.271.18.18.438.27.774.27.816 0 2.016-.456 3.6-1.368 1.584-.911 3.414-2.124 5.49-3.636a181.879 181.879 0 006.786-5.22 871.046 871.046 0 007.524-6.12 14.51 14.51 0 00-.99-.036h-.954c-.936 0-1.8.042-2.592.126-.792.084-1.476.223-2.052.414-.576.192-1.032.444-1.368.756s-.504.684-.504 1.116c0 .624-.132.936-.396.936-.144 0-.294-.077-.45-.233-.157-.156-.3-.36-.432-.612s-.247-.552-.342-.9a3.97 3.97 0 01-.144-1.062c0-.527.09-1.008.27-1.44.18-.432.504-.81.972-1.134.468-.324 1.098-.576 1.89-.756.792-.18 1.8-.27 3.024-.27 1.056 0 2.178.06 3.366.18 1.188.12 2.406.276 3.654.468 1.8-1.487 3.576-2.958 5.328-4.41a528.944 528.944 0 015.058-4.14c1.62-1.308 3.15-2.525 4.59-3.654a92.93 92.93 0 013.906-2.916c1.164-.815 2.172-1.451 3.024-1.908.852-.456 1.506-.685 1.962-.685zm-20.628 18.324c1.224.264 2.381.54 3.474.828 1.092.288 2.07.588 2.934.899a633.843 633.843 0 013.006-4.644c1.02-1.56 2.016-3.065 2.988-4.519.972-1.451 1.89-2.813 2.754-4.086a136.887 136.887 0 012.34-3.348c-.984.672-2.124 1.53-3.42 2.574s-2.694 2.214-4.194 3.51-3.084 2.688-4.752 4.176c-1.668 1.49-3.378 3.027-5.13 4.61zm22.787-9c.24-.216.516-.324.828-.324.24 0 .48.061.72.18.24.121.462.265.666.433.204.168.366.348.486.54.12.192.18.348.18.468 0 .048-.024.096-.072.144-.504.504-1.182 1.368-2.034 2.593a101.4 101.4 0 00-2.772 4.229 226.555 226.555 0 00-3.042 5.022c-1.032 1.752-1.968 3.396-2.808 4.932s-1.524 2.856-2.052 3.96-.792 1.812-.792 2.124c0 .096.036.144.108.144.168 0 .426-.102.774-.306.348-.203.75-.479 1.206-.828a40.47 40.47 0 001.458-1.17c.516-.432 1.038-.876 1.566-1.332 1.2-1.056 2.52-2.268 3.96-3.636.167 0 .33.107.486.324.156.216.234.432.234.647a.485.485 0 01-.144.36c-.12.144-.408.444-.864.899-.456.457-1.002.99-1.638 1.603-.636.612-1.326 1.254-2.07 1.926s-1.47 1.284-2.178 1.836a19.352 19.352 0 01-1.998 1.386c-.624.373-1.128.559-1.512.559-.696 0-1.302-.216-1.818-.648s-.774-1.031-.774-1.8c0-.384.18-1.008.54-1.872s.84-1.872 1.44-3.023c.6-1.152 1.284-2.406 2.052-3.763.768-1.355 1.566-2.724 2.394-4.104s1.65-2.718 2.466-4.015a327.112 327.112 0 012.25-3.527 80.273 80.273 0 011.764-2.628c.492-.697.822-1.14.99-1.333z"/>
    <path d="M-61.739 731.063a.348.348 0 01.252-.107c.192 0 .36.102.504.305s.216.413.216.628a.534.534 0 01-.144.395c-.216.215-.576.567-1.08 1.058a40.86 40.86 0 01-4.176 3.514c-.864.634-1.77 1.22-2.718 1.758-.949.538-1.92.974-2.916 1.309s-1.975.502-2.934.502c-.504 0-.966-.096-1.386-.288a3.463 3.463 0 01-1.08-.756c-.301-.312-.54-.678-.72-1.098s-.27-.858-.27-1.314c0-.576.162-1.278.486-2.105.324-.828.756-1.692 1.296-2.593.54-.899 1.146-1.8 1.818-2.699.671-.9 1.355-1.704 2.052-2.412.696-.708 1.374-1.284 2.034-1.729.66-.443 1.229-.666 1.71-.666.456 0 .876.085 1.26.252.384.168.708.378.972.63s.474.528.63.828c.156.301.234.57.234.811 0 .504-.103 1.056-.306 1.655a8.97 8.97 0 01-.774 1.692c-.312.528-.666.972-1.062 1.332s-.787.54-1.17.54a1.61 1.61 0 01-.72-.159 2.08 2.08 0 01-.558-.388c-.156-.153-.282-.312-.378-.477s-.144-.317-.144-.459c0-.211.12-.317.36-.317.264 0 .563-.182.9-.545a7.54 7.54 0 00.936-1.27c.288-.484.527-.962.72-1.434.192-.472.288-.816.288-1.034 0-.121-.036-.182-.108-.182-.168 0-.45.186-.846.558s-.84.864-1.332 1.476c-.492.612-1.002 1.297-1.53 2.053s-1.014 1.524-1.458 2.304-.81 1.53-1.098 2.25-.432 1.332-.432 1.836c0 .408.108.727.324.954.216.229.563.342 1.044.342.624 0 1.314-.143 2.07-.43a14.774 14.774 0 002.286-1.11 28.77 28.77 0 002.286-1.504 43.03 43.03 0 003.69-2.991c.456-.42.78-.724.972-.915z"/>
    <path d="M-28.367 731.027a.348.348 0 01.252-.107c.192 0 .36.103.504.306.144.204.216.414.216.63a.532.532 0 01-.144.396c-.144.144-.42.414-.828.81-.408.396-.9.853-1.476 1.368-.576.517-1.2 1.057-1.872 1.62-.672.564-1.338 1.08-1.998 1.548s-1.278.858-1.854 1.17-1.056.468-1.44.468c-.744 0-1.362-.275-1.854-.827s-.738-1.212-.738-1.98c0-.312.048-.695.144-1.152.096-.455.228-.947.396-1.476.167-.527.348-1.074.54-1.638.192-.563.396-1.11.612-1.639-.84.648-1.752 1.44-2.736 2.376a54.717 54.717 0 00-2.736 2.79 32.387 32.387 0 00-2.106 2.538c-.564.769-.846 1.309-.846 1.62 0 .385-.144.576-.432.576-.216 0-.468-.102-.756-.306s-.564-.48-.828-.828-.486-.75-.666-1.206-.27-.924-.27-1.404c0-.384.156-.972.468-1.764s.732-1.71 1.26-2.754 1.134-2.179 1.818-3.402 1.398-2.46 2.142-3.708a87.32 87.32 0 01-4.482 4.716c-1.548 1.513-3.078 2.809-4.59 3.889a22.749 22.749 0 01-1.458 2.357c-.564.805-1.188 1.536-1.872 2.196s-1.404 1.206-2.16 1.638c-.756.433-1.53.648-2.322.648-1.393 0-2.389-.325-2.988-.975-.6-.649-.9-1.407-.9-2.273 0-.241.059-.554.176-.938.117-.385.271-.794.458-1.228.188-.433.394-.859.617-1.28.224-.421.442-.776.657-1.065a3.175 3.175 0 01-.18-1.082c0-.602.241-1.239.722-1.913s1.071-1.281 1.77-1.822 1.451-.992 2.257-1.354 1.535-.542 2.186-.542c.649 0 1.239.14 1.769.418.53.277.975.629 1.336 1.052s.644.889.849 1.396c.205.508.307.991.307 1.451 0 .072-.006.145-.018.218-.012.072-.03.156-.054.253.959-.84 1.95-1.77 2.97-2.79 1.02-1.02 2.022-2.063 3.006-3.132a115.74 115.74 0 002.862-3.222 306.59 306.59 0 002.556-3.024 235.48 235.48 0 002.088-2.538c.612-.756 1.11-1.35 1.494-1.781.312-.312.534-.54.666-.685.131-.144.342-.216.63-.216.24 0 .48.061.72.18.239.121.461.265.666.433s.366.348.486.54c.12.192.18.348.18.468 0 .072-.012.12-.036.144-.913.913-1.908 2.137-2.988 3.672a72.4 72.4 0 00-3.204 5.005c-1.057 1.8-2.052 3.636-2.988 5.508s-1.728 3.6-2.376 5.184a49.118 49.118 0 012.61-2.628 56.506 56.506 0 012.736-2.412 26.402 26.402 0 012.34-1.746c.684-.443 1.158-.666 1.422-.666.24 0 .486.061.738.181s.479.27.684.449c.204.181.366.36.486.54.12.181.18.331.18.45 0 .072-.012.12-.036.145-.24.24-.51.678-.81 1.313-.3.637-.588 1.332-.864 2.088s-.504 1.5-.684 2.232-.27 1.326-.27 1.782.108.684.324.684c.167 0 .45-.12.846-.36.396-.239.84-.552 1.332-.936a73.703 73.703 0 003.186-2.646c.504-.443.954-.846 1.35-1.205.396-.364.678-.627.846-.796zm-32.616 7.74c.36 0 .834-.264 1.422-.792.588-.527 1.193-1.211 1.818-2.052a3.657 3.657 0 01-.378.054 3.856 3.856 0 01-.378.019c-.409 0-.798-.072-1.17-.216a4.098 4.098 0 01-1.026-.576c-.192.48-.36.978-.504 1.494s-.216.953-.216 1.313c0 .504.144.756.432.756zm6.441-10.943c-.7 0-1.4.144-2.1.432s-1.333.636-1.9 1.044-1.032.846-1.394 1.314-.542.882-.542 1.241c0 .744.253 1.339.76 1.782.507.444 1.146.666 1.918.666.483 0 .953-.096 1.412-.288.337-.527.658-1.056.959-1.584.302-.527.562-1.031.778-1.512.217-.479.392-.918.525-1.314s.199-.737.199-1.025c0-.504-.205-.756-.615-.756z"/>
    <path d="M-2.664 713.747c.216-.216.48-.324.792-.324.24 0 .48.061.72.18.239.121.461.265.666.433s.366.348.486.54c.12.192.18.348.18.468 0 .072-.012.12-.036.144-.36.36-.834.942-1.422 1.746a75.156 75.156 0 00-1.944 2.809 107.97 107.97 0 00-2.214 3.491 293.703 293.703 0 00-2.286 3.816 192.588 192.588 0 00-2.16 3.762 123.93 123.93 0 00-1.8 3.33c-.516.996-.93 1.843-1.242 2.538-.312.696-.468 1.152-.468 1.368 0 .096.036.144.108.144.24 0 .624-.18 1.152-.54.528-.359 1.122-.81 1.782-1.35s1.344-1.121 2.052-1.746c.708-.624 1.355-1.206 1.944-1.746.588-.54 1.074-.989 1.458-1.35.383-.36.588-.54.612-.54.167 0 .33.107.486.324.156.216.234.432.234.647a.485.485 0 01-.144.36l-.9.899c-.457.457-.997.99-1.62 1.603a71.265 71.265 0 01-2.052 1.926 35.614 35.614 0 01-2.196 1.836 20.824 20.824 0 01-2.016 1.386c-.625.373-1.128.559-1.512.559a2.742 2.742 0 01-1.818-.648c-.516-.432-.774-1.031-.774-1.8 0-.407.204-1.086.612-2.034a46.38 46.38 0 011.602-3.294c.66-1.247 1.41-2.604 2.25-4.067.84-1.464 1.692-2.916 2.556-4.356a116.413 116.413 0 01-4.752 5.112c-1.656 1.68-3.312 3.096-4.968 4.248a22.643 22.643 0 01-1.458 2.357 15.761 15.761 0 01-1.872 2.214 10.507 10.507 0 01-2.16 1.656c-.756.433-1.53.648-2.322.648-.697 0-1.291-.09-1.782-.271-.492-.181-.895-.421-1.206-.722-.312-.301-.54-.644-.684-1.028s-.216-.795-.216-1.228c0-.241.059-.56.176-.956.117-.397.271-.812.458-1.246.188-.433.394-.859.617-1.281a8.33 8.33 0 01.657-1.063 2.506 2.506 0 01-.144-.561 3.95 3.95 0 01-.036-.522c0-.602.241-1.233.722-1.895a9.27 9.27 0 011.77-1.822c.698-.554 1.451-1.005 2.257-1.354s1.535-.524 2.186-.524c.649 0 1.239.14 1.769.418.53.277.975.622 1.336 1.033.361.412.644.877.849 1.397.205.52.307 1.01.307 1.469 0 .048-.024.193-.072.435 1.056-.911 2.142-1.932 3.258-3.06s2.208-2.286 3.276-3.474a183.482 183.482 0 003.06-3.492 255.27 255.27 0 002.646-3.15l2.034-2.466c.564-.683.966-1.145 1.206-1.386zm-24.948 25.02c.36 0 .834-.27 1.422-.81s1.193-1.218 1.818-2.034a1.939 1.939 0 01-.378.036h-.378a3.385 3.385 0 01-2.196-.792c-.192.48-.36.984-.504 1.512s-.216.972-.216 1.332c.001.504.145.756.432.756zm6.441-10.943c-.7 0-1.4.138-2.1.414-.7.275-1.333.624-1.9 1.044s-1.032.863-1.394 1.332c-.362.468-.542.882-.542 1.241 0 .721.253 1.309.76 1.765s1.146.684 1.918.684c.435 0 .905-.107 1.412-.324.337-.527.658-1.056.959-1.584.302-.527.562-1.031.778-1.512a14.2 14.2 0 00.525-1.313c.133-.396.199-.738.199-1.026 0-.481-.205-.721-.615-.721z"/>
    <path d="M4.284 730.992c.072-.072.144-.108.216-.108.192 0 .366.114.522.342.156.229.234.45.234.666a.485.485 0 01-.144.36c-.144.12-.42.384-.828.792-.409.408-.9.87-1.476 1.386a58.354 58.354 0 01-1.89 1.62c-.684.564-1.356 1.08-2.016 1.548s-1.278.858-1.855 1.17-1.059.468-1.447.468c-.703 0-1.316-.275-1.837-.827s-.782-1.212-.782-1.98c0-.36.103-.834.309-1.422.206-.588.473-1.229.801-1.926.327-.696.697-1.416 1.109-2.16.413-.744.818-1.44 1.216-2.088a36.43 36.43 0 011.137-1.746c.36-.516.66-.894.9-1.134.216-.217.492-.324.828-.324.264 0 .54.061.828.18.288.12.546.271.774.45s.414.36.558.54.216.33.216.45c0 .072-.012.12-.036.144-.168.168-.414.48-.738.937-.324.456-.678.989-1.062 1.602s-.774 1.26-1.17 1.944a42.626 42.626 0 00-1.08 1.979 22.245 22.245 0 00-.792 1.71c-.204.504-.306.877-.306 1.116 0 .192.072.288.216.288.167 0 .45-.126.846-.378s.846-.57 1.35-.954c.504-.384 1.038-.81 1.602-1.278.564-.468 1.098-.923 1.602-1.367s.954-.847 1.35-1.206c.394-.363.676-.626.845-.794zm-.828-15.265c.336-.336.708-.504 1.116-.504.36 0 .72.108 1.08.324s.678.475.954.774c.276.3.504.618.684.953.18.337.27.625.27.864 0 .337-.18.504-.54.504-.265 0-.606.162-1.026.486-.42.324-.828.708-1.224 1.152s-.732.882-1.008 1.313c-.276.432-.414.756-.414.972 0 .288-.192.433-.576.433-.336 0-.702-.12-1.098-.36-.396-.239-.594-.552-.594-.936 0-.408.078-.9.234-1.477.156-.576.348-1.157.576-1.746.228-.588.479-1.127.756-1.619.275-.49.545-.868.81-1.133z"/>
    <path d="M18.251 731.063a.348.348 0 01.252-.107c.192 0 .36.102.504.305s.216.413.216.628a.534.534 0 01-.144.395c-.216.215-.576.567-1.08 1.058a40.86 40.86 0 01-4.176 3.514c-.864.634-1.77 1.22-2.718 1.758-.949.538-1.92.974-2.916 1.309s-1.975.502-2.934.502c-.504 0-.966-.096-1.386-.288a3.463 3.463 0 01-1.08-.756c-.301-.312-.54-.678-.72-1.098s-.27-.858-.27-1.314c0-.576.162-1.278.486-2.105.324-.828.756-1.692 1.296-2.593.54-.899 1.146-1.8 1.818-2.699.671-.9 1.355-1.704 2.052-2.412.696-.708 1.374-1.284 2.034-1.729.66-.443 1.229-.666 1.71-.666.456 0 .876.085 1.26.252.384.168.708.378.972.63s.474.528.63.828c.156.301.234.57.234.811 0 .504-.103 1.056-.306 1.655a8.97 8.97 0 01-.774 1.692c-.312.528-.666.972-1.062 1.332s-.787.54-1.17.54a1.61 1.61 0 01-.72-.159 2.08 2.08 0 01-.558-.388 2.274 2.274 0 01-.378-.477.921.921 0 01-.144-.459c0-.211.12-.317.36-.317.264 0 .563-.182.9-.545a7.54 7.54 0 00.936-1.27c.288-.484.527-.962.72-1.434.192-.472.288-.816.288-1.034 0-.121-.036-.182-.108-.182-.168 0-.45.186-.846.558s-.84.864-1.332 1.476-1.002 1.297-1.53 2.053-1.014 1.524-1.458 2.304c-.444.78-.81 1.53-1.098 2.25s-.432 1.332-.432 1.836c0 .408.108.727.324.954.216.229.563.342 1.044.342.624 0 1.314-.143 2.07-.43a14.774 14.774 0 002.286-1.11 28.77 28.77 0 002.286-1.504 43.03 43.03 0 003.69-2.991c.456-.42.78-.724.972-.915zm27.756-17.316c.216-.216.48-.324.792-.324.24 0 .48.061.72.18.24.121.462.265.666.433.204.168.366.348.486.54s.18.348.18.468c0 .072-.012.12-.036.144-.48.48-1.116 1.284-1.908 2.412a104.1 104.1 0 00-2.574 3.87 135.85 135.85 0 00-2.79 4.59c-.936 1.608-1.788 3.127-2.556 4.555s-1.392 2.694-1.872 3.798-.72 1.86-.72 2.268c0 .216.072.324.216.324.192 0 .516-.149.972-.45.456-.3.966-.678 1.53-1.134.563-.456 1.157-.941 1.782-1.458.624-.516 1.194-1.002 1.71-1.458s.942-.834 1.278-1.134.516-.45.54-.45c.192 0 .366.107.522.324.156.216.234.432.234.647a.534.534 0 01-.144.396c-.144.12-.42.384-.828.792s-.9.87-1.476 1.386c-.576.517-1.2 1.057-1.872 1.62-.672.564-1.338 1.08-1.998 1.548s-1.285.858-1.875 1.17c-.589.312-1.079.468-1.466.468-.703 0-1.315-.275-1.836-.828a2.782 2.782 0 01-.782-1.979c0-.216.103-.563.31-1.044.206-.479.479-1.067.818-1.764a87.754 87.754 0 01-2.145 2.357 42.136 42.136 0 01-2.216 2.196c-.721.66-1.394 1.2-2.019 1.62s-1.153.63-1.586.63c-.697 0-1.231-.271-1.604-.811-.372-.54-.559-1.206-.559-1.998 0-.623.175-1.361.523-2.214.349-.852.812-1.739 1.39-2.664a25.552 25.552 0 012.004-2.754 22.793 22.793 0 012.347-2.447c.806-.721 1.612-1.302 2.419-1.746s1.559-.666 2.257-.666c.722 0 1.341.168 1.858.504.516.336.87.732 1.062 1.188.84-1.463 1.704-2.928 2.592-4.392a212.243 212.243 0 012.502-4.032c.78-1.224 1.452-2.256 2.016-3.096.566-.84.943-1.369 1.136-1.585zm-19.224 24.3c.144 0 .456-.198.936-.594a35.832 35.832 0 001.71-1.53c.66-.624 1.362-1.308 2.106-2.052l2.16-2.16c.696-.696 1.314-1.326 1.854-1.89.54-.564.93-.966 1.17-1.206a.402.402 0 01-.036-.181c0-.071-.03-.191-.09-.359-.061-.168-.144-.336-.252-.504s-.234-.312-.378-.433-.288-.18-.432-.18c-.336 0-.792.246-1.368.738s-1.194 1.122-1.854 1.89a41.336 41.336 0 00-1.98 2.502c-.661.9-1.26 1.759-1.8 2.574-.54.816-.978 1.529-1.314 2.142s-.504 1.003-.504 1.17c0 .05.024.073.072.073z"/>
    <path d="M58.031 730.992a.345.345 0 01.252-.108c.167 0 .33.108.486.324.156.216.234.432.234.647a.485.485 0 01-.144.36c-.144.144-.42.414-.828.81s-.9.853-1.476 1.368c-.576.517-1.2 1.057-1.872 1.62a31.07 31.07 0 01-1.998 1.548c-.66.469-1.284.858-1.872 1.17s-1.075.469-1.458.469c-.697 0-1.302-.276-1.818-.828s-.774-1.212-.774-1.98c0-.455.167-1.008.504-1.656.336-.647.708-1.289 1.116-1.926.408-.636.78-1.229 1.116-1.782.336-.552.504-.959.504-1.224 0-.239-.162-.414-.486-.521a7.407 7.407 0 00-1.206-.271c-1.152 1.272-2.1 2.256-2.844 2.952-.744.696-1.32 1.206-1.728 1.53-.408.323-.69.521-.846.594-.156.072-.222.108-.198.108-.24 0-.462-.078-.666-.234s-.306-.33-.306-.522c0-.023.084-.119.252-.288.168-.167.438-.432.81-.792l1.476-1.422a96.437 96.437 0 002.25-2.25 6.587 6.587 0 01-1.836-.575c-.528-.265-.792-.685-.792-1.261 0-.384.18-.833.54-1.35.36-.516.815-1.002 1.368-1.458s1.17-.84 1.854-1.152c.684-.312 1.338-.468 1.962-.468.72 0 1.236.114 1.548.342.312.229.468.534.468.918 0 .504-.216 1.116-.648 1.836-.432.721-.96 1.465-1.584 2.232.36.12.726.246 1.098.378.372.132.714.301 1.026.504.312.204.564.456.756.756.192.301.288.666.288 1.099 0 .216-.12.605-.36 1.17-.24.563-.504 1.17-.792 1.817a67.098 67.098 0 00-.792 1.854c-.24.588-.36 1.025-.36 1.313 0 .192.06.288.18.288.168 0 .45-.119.846-.359s.846-.553 1.35-.937 1.038-.81 1.602-1.278a73.738 73.738 0 001.602-1.367c.504-.444.954-.847 1.35-1.206.396-.361.678-.624.846-.792zm-10.764-4.609c0 .36.216.636.648.828a22.59 22.59 0 001.728-1.908c.456-.576.684-.983.684-1.224 0-.145-.084-.216-.252-.216-.096 0-.294.096-.594.287-.301.192-.612.421-.936.685-.324.265-.618.54-.882.828s-.396.529-.396.72z"/>
    <path d="M86.326 730.883c.072-.072.145-.108.217-.108.191 0 .365.108.521.324s.234.433.234.648c0 .168-.049.3-.145.396a78.838 78.838 0 01-2.303 2.143 61.061 61.061 0 01-1.891 1.62 35.56 35.56 0 01-2.016 1.548c-.66.468-1.279.858-1.854 1.17-.576.312-1.057.468-1.441.468a2.377 2.377 0 01-1.854-.828c-.492-.552-.738-1.212-.738-1.979 0-.312.049-.696.145-1.152s.227-.941.396-1.458c.166-.516.348-1.056.539-1.62.191-.563.396-1.109.611-1.638a35.285 35.285 0 00-2.717 2.357c-.973.925-1.879 1.849-2.719 2.772s-1.543 1.771-2.105 2.538c-.564.769-.846 1.32-.846 1.656 0 .456-.18.684-.541.684-.191 0-.414-.077-.666-.234a2.834 2.834 0 01-.702-.63 3.758 3.758 0 01-.558-.972 3.298 3.298 0 01-.234-1.26c0-.408.144-1.014.432-1.818.288-.804.672-1.674 1.152-2.61a63.556 63.556 0 01-2.43 1.891c-.828.611-1.644 1.158-2.448 1.638s-1.566.864-2.286 1.152c-.72.288-1.368.432-1.944.432-.864 0-1.536-.216-2.016-.647-.48-.433-.72-1.08-.72-1.944 0-.456.149-1.05.45-1.782.3-.731.648-1.47 1.044-2.214.396-.743.797-1.422 1.206-2.034.408-.612.708-1.014.9-1.206.216-.216.492-.324.828-.324.264 0 .54.061.828.181s.546.27.774.45.414.359.558.54c.144.18.216.33.216.449 0-.048-.175.175-.522.666a22.756 22.756 0 00-1.134 1.801c-.408.708-.786 1.416-1.134 2.124s-.522 1.254-.522 1.638c0 .265.108.396.324.396.288 0 .708-.149 1.26-.449s1.175-.685 1.872-1.152a44.697 44.697 0 002.196-1.584c.768-.588 1.506-1.17 2.214-1.746s1.362-1.116 1.962-1.62 1.068-.912 1.404-1.224c.287-.216.486-.384.594-.504s.293-.181.559-.181c.238 0 .479.061.719.181s.463.264.666.432c.205.168.367.349.486.54.121.192.18.348.18.468 0 .072-.012.12-.035.145-.625.624-1.273 1.398-1.943 2.321a17.578 17.578 0 00-1.766 3.042 38.362 38.362 0 012.664-2.754 53.755 53.755 0 012.846-2.502c.91-.743 1.727-1.35 2.447-1.817.721-.469 1.225-.702 1.512-.702.24 0 .48.06.721.18a3.1 3.1 0 01.646.432c.193.169.348.343.469.522.119.18.18.33.18.45 0 .071-.012.12-.035.144-.24.24-.51.679-.811 1.314s-.588 1.332-.863 2.088a20.653 20.653 0 00-.684 2.25c-.182.744-.271 1.332-.271 1.764 0 .456.109.685.324.685.168 0 .451-.12.846-.36.396-.239.846-.552 1.352-.937.504-.383 1.037-.81 1.602-1.277a76.169 76.169 0 001.602-1.368c.504-.443.953-.846 1.35-1.206s.678-.631.846-.799zm-21.312-7.164c0 .288-.192.432-.576.432-.336 0-.696-.119-1.08-.359s-.576-.552-.576-.937c0-.623.114-1.313.342-2.069s.516-1.458.864-2.106a8.063 8.063 0 011.134-1.638c.408-.444.792-.666 1.152-.666s.713.107 1.062.324c.347.216.665.474.954.773.287.301.516.618.684.954.168.337.252.624.252.864 0 .336-.18.504-.539.504-.266 0-.607.162-1.027.486-.42.323-.827.708-1.223 1.151-.396.444-.732.882-1.008 1.314-.277.433-.415.757-.415.973z"/>
    <path d="M102.813 731.027a.347.347 0 01.252-.107c.167 0 .329.107.485.324.156.216.234.432.234.647a.485.485 0 01-.144.36c-.145.144-.421.414-.828.81-.408.396-.9.853-1.477 1.368a71.14 71.14 0 01-1.872 1.62c-.672.564-1.337 1.08-1.998 1.548s-1.284.858-1.871 1.17c-.589.312-1.075.468-1.458.468-.505 0-1.026-.138-1.566-.413a8.41 8.41 0 01-1.548-1.026 11.754 11.754 0 01-1.351-1.314 9.117 9.117 0 01-.936-1.241 19.542 19.542 0 00-1.512 2.573c-.385.805-.576 1.482-.576 2.034 0 .385-.145.576-.433.576-.216 0-.468-.102-.756-.306s-.563-.48-.828-.828a5.086 5.086 0 01-.666-1.206 3.792 3.792 0 01-.27-1.404c0-.384.156-.978.468-1.782.312-.804.732-1.728 1.26-2.771a86.382 86.382 0 011.837-3.42c.695-1.236 1.422-2.49 2.178-3.763.756-1.271 1.512-2.514 2.268-3.726s1.477-2.322 2.16-3.33 1.296-1.878 1.836-2.61c.54-.731.954-1.241 1.242-1.529.216-.216.479-.324.792-.324.239 0 .479.061.72.18.24.121.461.265.666.433s.366.348.486.54.18.348.18.468c0 .072-.012.12-.036.144-.768.769-1.601 1.771-2.501 3.006a60.728 60.728 0 00-2.7 4.068c-.899 1.477-1.781 3.006-2.646 4.59s-1.645 3.12-2.34 4.608c.768-.984 1.548-1.89 2.34-2.718s1.542-1.536 2.25-2.124 1.332-1.044 1.872-1.368.941-.486 1.206-.486c.168 0 .384.078.647.234.265.156.528.359.792.611.264.253.492.547.684.883.191.336.288.684.288 1.044 0 .48-.229 1.056-.685 1.728s-1.032 1.356-1.727 2.052a20.003 20.003 0 01-2.322 1.98c-.853.624-1.687 1.104-2.502 1.439a6.92 6.92 0 001.404 1.585c.527.432.995.647 1.403.647.168 0 .45-.12.847-.36.396-.239.846-.552 1.35-.936s1.038-.81 1.602-1.278a73.703 73.703 0 001.602-1.368c.504-.443.954-.846 1.35-1.205.398-.363.681-.626.848-.795zm-6.264-4.212c-.696.528-1.524 1.255-2.483 2.179A45.804 45.804 0 0091.222 732c0 .096.023.24.071.432a12.258 12.258 0 001.548-1.062 17.87 17.87 0 001.513-1.351c.479-.479.911-.995 1.296-1.548a8.01 8.01 0 00.899-1.656z"/>
    <path d="M117.321 730.992c.384 0 .685.102.9.306s.324.402.324.594c0 .24-.133.36-.396.36-.48 0-1.074.09-1.782.27a22.34 22.34 0 00-2.304.738 37.48 37.48 0 00-2.592 1.098c-.9.421-1.782.858-2.646 1.314.312.384.564.769.757 1.152.191.384.287.756.287 1.115 0 .696-.264 1.339-.792 1.927a8.015 8.015 0 01-1.872 1.529c-.72.433-1.46.774-2.22 1.026s-1.377.378-1.851.378c-.334 0-.676-.084-1.023-.252s-.666-.378-.954-.63-.521-.54-.702-.864a1.956 1.956 0 01-.27-.954c0-.359.138-.737.414-1.134.275-.396.647-.792 1.116-1.188.468-.396 1.017-.797 1.646-1.205s1.302-.805 2.013-1.188a44.316 44.316 0 01-.871-1.062c-.297-.372-.563-.744-.801-1.116s-.433-.732-.586-1.08a2.45 2.45 0 01-.231-.99c0-.36.136-.786.409-1.278a9.39 9.39 0 011.066-1.512 16.13 16.13 0 011.499-1.53 16.927 16.927 0 011.705-1.35c.576-.396 1.14-.72 1.692-.972s1.031-.378 1.439-.378c.456 0 .876.084 1.261.252.383.168.72.372 1.008.611.288.24.51.511.666.811.155.3.233.57.233.81 0 .504-.103 1.057-.306 1.656a8.998 8.998 0 01-.774 1.692 5.723 5.723 0 01-1.062 1.332c-.396.359-.786.54-1.17.54-.265 0-.504-.055-.72-.162a2.402 2.402 0 01-.559-.378 1.968 1.968 0 01-.378-.469.948.948 0 01-.144-.468c0-.216.119-.324.359-.324.264 0 .563-.174.9-.521a7.89 7.89 0 00.954-1.225c.3-.468.552-.923.756-1.367.203-.444.306-.762.306-.954 0-.096-.036-.145-.107-.145-.48 0-1.062.252-1.746.756a15.702 15.702 0 00-1.998 1.765c-.648.672-1.2 1.338-1.656 1.998s-.684 1.146-.684 1.458c0 .288.18.647.54 1.08.359.432.779.899 1.26 1.403a69.427 69.427 0 013.06-1.296c1.032-.407 1.986-.756 2.862-1.044s1.649-.516 2.322-.684c.675-.167 1.155-.251 1.443-.251zm-10.368 6.551c0-.096-.107-.312-.323-.648-1.272.744-2.328 1.435-3.168 2.07-.841.636-1.261 1.11-1.261 1.422 0 .048.048.072.145.072.191 0 .54-.102 1.044-.306s1.02-.456 1.548-.757a9.86 9.86 0 001.404-.954c.407-.334.611-.634.611-.899z"/>
</svg>
