<svg xmlns="http://www.w3.org/2000/svg" viewBox="0 0 400 100">
    <path d="M175.7 10.1c.5 0 1.1.1 1.6.4.6.2 1 .5 1.5.8.4.3.8.7 1.1 1s.4.7.4 1c0 .1 0 .2-.1.3-1.4 1.4-3.1 3.5-5.2 6.2s-4.3 5.9-6.8 9.5c-2.4 3.6-5 7.4-7.6 11.6-2.6 4.1-5.1 8.3-7.6 12.4.5.5.9 1.1 1.1 1.8.2.7.3 1.3.3 1.9 0 .5-.1 1-.2 1.3-.1.4-.4.5-.6.5-.2 0-.6-.2-1-.6-.5-.4-1-.8-1.7-1.2-1.8 3.1-3.4 6.1-5 9-1.5 2.9-2.9 5.6-4 8-1.1 2.4-2 4.6-2.7 6.4-.6 1.8-1 3.3-1 4.3 0 .8-.4 1.2-1.2 1.2-.5 0-1.1-.2-1.8-.5-.6-.4-1.3-.8-1.9-1.4-.6-.6-1.1-1.3-1.5-2.2-.4-.8-.6-1.7-.6-2.7 0-.6.3-1.7 1-3.2.7-1.5 1.6-3.4 2.8-5.5 1.2-2.2 2.6-4.6 4.2-7.3s3.3-5.6 5.2-8.5c-2.2-.7-4.6-1.3-7.2-1.9-2.6-.6-5.2-1.1-8-1.4-3.6 3.2-7.1 6.4-10.7 9.5-3.6 3.1-7 6.2-10.3 9-3.3 2.9-6.5 5.5-9.6 8-3 2.4-5.9 4.6-8.4 6.4-2.6 1.8-4.8 3.2-6.8 4.2s-3.6 1.5-4.8 1.5c-1.3 0-2.4-.2-3.3-.6-.9-.4-1.7-1-2.2-1.6s-1-1.3-1.2-2c-.2-.7-.4-1.3-.4-1.9 0-.5.1-.9.2-1.2.1-.3.4-.5.6-.5s.6.2 1 .5c.4.4.9.5 1.5.5 1.6 0 4-.9 7.2-2.7 3.2-1.8 6.8-4.2 11-7.3 4.2-3 8.7-6.5 13.6-10.4 4.9-3.9 9.9-8 15-12.2-.7 0-1.3-.1-2-.1h-1.9c-1.9 0-3.6.1-5.2.3s-3 .4-4.1.8c-1.2.4-2.1.9-2.7 1.5-.7.6-1 1.4-1 2.2 0 1.2-.3 1.9-.8 1.9-.3 0-.6-.2-.9-.5-.3-.3-.6-.7-.9-1.2-.3-.5-.5-1.1-.7-1.8-.2-.7-.3-1.4-.3-2.1 0-1.1.2-2 .5-2.9.4-.9 1-1.6 1.9-2.3.9-.6 2.2-1.2 3.8-1.5s3.6-.5 6-.5c2.1 0 4.4.1 6.7.4s4.8.6 7.3.9c3.6-3 7.2-5.9 10.7-8.8 3.5-2.9 6.9-5.7 10.1-8.3 3.2-2.6 6.3-5.1 9.2-7.3 2.9-2.3 5.5-4.2 7.8-5.8 2.3-1.6 4.3-2.9 6-3.8 2.4-1 3.7-1.5 4.6-1.5zm-41.3 36.7c2.4.5 4.8 1.1 6.9 1.7 2.2.6 4.1 1.2 5.9 1.8l6-9.3c2-3.1 4-6.1 6-9 1.9-2.9 3.8-5.6 5.5-8.2 1.7-2.5 3.3-4.8 4.7-6.7-2 1.3-4.2 3.1-6.8 5.1s-5.4 4.4-8.4 7c-3 2.6-6.2 5.4-9.5 8.4-3.3 2.9-6.8 6-10.3 9.2zm45.6-18c.5-.4 1-.6 1.7-.6.5 0 1 .1 1.4.4.5.2.9.5 1.3.9.4.3.7.7 1 1.1.2.4.4.7.4.9 0 .1 0 .2-.1.3-1 1-2.4 2.7-4.1 5.2-1.7 2.4-3.6 5.3-5.5 8.5-2 3.2-4 6.5-6.1 10-2.1 3.5-3.9 6.8-5.6 9.9-1.7 3.1-3 5.7-4.1 7.9-1.1 2.2-1.6 3.6-1.6 4.2 0 .2.1.3.2.3.3 0 .9-.2 1.5-.6.7-.4 1.5-1 2.4-1.7.9-.7 1.9-1.5 2.9-2.3 1-.9 2.1-1.8 3.1-2.7 2.4-2.1 5-4.5 7.9-7.3.3 0 .7.2 1 .6.3.4.5.9.5 1.3 0 .3-.1.5-.3.7-.2.3-.8.9-1.7 1.8-.9.9-2 2-3.3 3.2-1.3 1.2-2.7 2.5-4.1 3.9-1.5 1.3-2.9 2.6-4.4 3.7-1.4 1.1-2.7 2-4 2.8-1.2.7-2.3 1.1-3 1.1-1.4 0-2.6-.4-3.6-1.3s-1.5-2.1-1.5-3.6c0-.8.4-2 1.1-3.7.7-1.7 1.7-3.7 2.9-6s2.6-4.8 4.1-7.5c1.5-2.7 3.1-5.4 4.8-8.2s3.3-5.4 4.9-8c1.6-2.6 3.1-4.9 4.5-7.1 1.4-2.1 2.5-3.9 3.5-5.3.9-1.6 1.6-2.5 1.9-2.8z"/>
    <path d="M204.3 63.4c.1-.1.3-.2.5-.2.4 0 .7.2 1 .6s.4.8.4 1.3c0 .3-.1.6-.3.8-.4.4-1.2 1.1-2.2 2.1-1 1-2.2 2.1-3.6 3.3-1.4 1.2-3 2.5-4.7 3.7-1.7 1.3-3.5 2.4-5.4 3.5-1.9 1.1-3.8 1.9-5.8 2.6-2 .7-3.9 1-5.9 1-1 0-1.9-.2-2.8-.6-.8-.4-1.6-.9-2.2-1.5-.6-.6-1.1-1.4-1.4-2.2s-.5-1.7-.5-2.6c0-1.2.3-2.6 1-4.2.6-1.7 1.5-3.4 2.6-5.2 1.1-1.8 2.3-3.6 3.6-5.4 1.3-1.8 2.7-3.4 4.1-4.8 1.4-1.4 2.7-2.6 4.1-3.5 1.3-.9 2.5-1.3 3.4-1.3.9 0 1.8.2 2.5.5.8.3 1.4.8 1.9 1.3s.9 1.1 1.3 1.7c.3.6.5 1.1.5 1.6 0 1-.2 2.1-.6 3.3-.4 1.2-.9 2.3-1.5 3.4s-1.3 1.9-2.1 2.7-1.6 1.1-2.3 1.1c-.5 0-1-.1-1.4-.3-.4-.2-.8-.5-1.1-.8-.3-.3-.6-.6-.8-1-.2-.3-.3-.6-.3-.9 0-.4.2-.6.7-.6.5 0 1.1-.4 1.8-1.1.7-.7 1.3-1.6 1.9-2.5.6-1 1.1-1.9 1.4-2.9.4-.9.6-1.6.6-2.1 0-.2-.1-.4-.2-.4-.3 0-.9.4-1.7 1.1s-1.7 1.7-2.7 3c-1 1.2-2 2.6-3.1 4.1-1.1 1.5-2 3-2.9 4.6-.9 1.6-1.6 3.1-2.2 4.5s-.9 2.7-.9 3.7c0 .8.2 1.5.6 1.9.4.5 1.1.7 2.1.7 1.2 0 2.6-.3 4.1-.9 1.5-.6 3-1.3 4.6-2.2 1.5-.9 3.1-1.9 4.6-3s2.9-2.2 4.1-3.2c1.2-1 2.3-2 3.2-2.8 1-.9 1.6-1.5 2-1.9z"/>
    <path d="M271 63.3c.1-.1.3-.2.5-.2.4 0 .7.2 1 .6.3.4.4.8.4 1.3 0 .3-.1.6-.3.8-.3.3-.8.8-1.7 1.6-.8.8-1.8 1.7-3 2.7-1.2 1-2.4 2.1-3.7 3.2-1.3 1.1-2.7 2.2-4 3.1s-2.6 1.7-3.7 2.3c-1.2.6-2.1.9-2.9.9-1.5 0-2.7-.6-3.7-1.7s-1.5-2.4-1.5-4c0-.6.1-1.4.3-2.3.2-.9.5-1.9.8-3 .3-1.1.7-2.1 1.1-3.3l1.2-3.3c-1.7 1.3-3.5 2.9-5.5 4.8s-3.8 3.7-5.5 5.6c-1.7 1.8-3.1 3.5-4.2 5.1-1.1 1.5-1.7 2.6-1.7 3.2 0 .8-.3 1.2-.9 1.2-.4 0-.9-.2-1.5-.6s-1.1-1-1.7-1.7c-.5-.7-1-1.5-1.3-2.4s-.5-1.8-.5-2.8c0-.8.3-1.9.9-3.5s1.5-3.4 2.5-5.5c1.1-2.1 2.3-4.4 3.6-6.8s2.8-4.9 4.3-7.4c-2.9 3.3-5.9 6.4-9 9.4-3.1 3-6.2 5.6-9.2 7.8-.8 1.5-1.8 3.1-2.9 4.7-1.1 1.6-2.4 3.1-3.7 4.4s-2.8 2.4-4.3 3.3c-1.5.9-3.1 1.3-4.6 1.3-2.8 0-4.8-.7-6-1.9-1.2-1.3-1.8-2.8-1.8-4.5 0-.5.1-1.1.4-1.9.2-.8.5-1.6.9-2.5.4-.9.8-1.7 1.2-2.6.4-.8.9-1.6 1.3-2.1-.2-.7-.4-1.4-.4-2.2 0-1.2.5-2.5 1.4-3.8s2.1-2.6 3.5-3.6 2.9-2 4.5-2.7 3.1-1.1 4.4-1.1c1.3 0 2.5.3 3.5.8 1.1.6 2 1.3 2.7 2.1s1.3 1.8 1.7 2.8c.4 1 .6 2 .6 2.9v.4c0 .1-.1.3-.1.5 1.9-1.7 3.9-3.5 5.9-5.6 2-2 4-4.1 6-6.3 2-2.1 3.9-4.3 5.7-6.4 1.8-2.2 3.6-4.2 5.1-6 1.6-1.9 3-3.6 4.2-5.1 1.2-1.5 2.2-2.7 3-3.6.6-.6 1.1-1.1 1.3-1.4.3-.3.7-.4 1.3-.4.5 0 1 .1 1.4.4.5.2.9.5 1.3.9s.7.7 1 1.1c.2.4.4.7.4.9 0 .1 0 .2-.1.3-1.8 1.8-3.8 4.3-6 7.3-2.2 3.1-4.3 6.4-6.4 10-2.1 3.6-4.1 7.3-6 11s-3.5 7.2-4.8 10.4c1.6-1.7 3.3-3.5 5.2-5.3 1.9-1.8 3.7-3.4 5.5-4.8 1.8-1.4 3.3-2.6 4.7-3.5 1.4-.9 2.3-1.3 2.8-1.3s1 .1 1.5.4 1 .5 1.4.9c.4.4.7.7 1 1.1.2.4.4.7.4.9 0 .1 0 .2-.1.3-.5.5-1 1.4-1.6 2.6-.6 1.3-1.2 2.7-1.7 4.2s-1 3-1.4 4.5c-.4 1.5-.5 2.7-.5 3.6s.2 1.4.6 1.4c.3 0 .9-.2 1.7-.7.8-.5 1.7-1.1 2.7-1.9 1-.8 2-1.6 3.2-2.6 1.1-.9 2.2-1.8 3.2-2.7 1-.9 1.9-1.7 2.7-2.4 1.1-.7 1.7-1.2 2-1.6zm-65.2 15.5c.7 0 1.7-.5 2.8-1.6 1.2-1.1 2.4-2.4 3.6-4.1-.2 0-.5.1-.8.1h-.8c-.8 0-1.6-.1-2.3-.4-.7-.3-1.4-.7-2.1-1.2-.4 1-.7 2-1 3-.3 1-.4 1.9-.4 2.6.1 1.1.4 1.6 1 1.6zm12.9-21.9c-1.4 0-2.8.3-4.2.9-1.4.6-2.7 1.3-3.8 2.1s-2.1 1.7-2.8 2.6c-.7.9-1.1 1.8-1.1 2.5 0 1.5.5 2.7 1.5 3.6 1 .9 2.3 1.3 3.8 1.3 1 0 1.9-.2 2.8-.6.7-1.1 1.3-2.1 1.9-3.2.6-1.1 1.1-2.1 1.6-3 .4-1 .8-1.8 1-2.6.3-.8.4-1.5.4-2.1.1-1-.3-1.5-1.1-1.5z"/>
    <path d="M322.4 28.8c.4-.4 1-.6 1.6-.6.5 0 1 .1 1.4.4.5.2.9.5 1.3.9s.7.7 1 1.1c.2.4.4.7.4.9 0 .1 0 .2-.1.3-.7.7-1.7 1.9-2.8 3.5-1.2 1.6-2.5 3.5-3.9 5.6-1.4 2.1-2.9 4.5-4.4 7-1.5 2.5-3.1 5.1-4.6 7.6-1.5 2.6-3 5.1-4.3 7.5-1.4 2.4-2.6 4.7-3.6 6.7s-1.9 3.7-2.5 5.1c-.6 1.4-.9 2.3-.9 2.7 0 .2.1.3.2.3.5 0 1.2-.4 2.3-1.1 1.1-.7 2.2-1.6 3.6-2.7 1.3-1.1 2.7-2.2 4.1-3.5 1.4-1.2 2.7-2.4 3.9-3.5 1.2-1.1 2.1-2 2.9-2.7.8-.7 1.2-1.1 1.2-1.1.3 0 .7.2 1 .6.3.4.5.9.5 1.3 0 .3-.1.5-.3.7l-1.8 1.8-3.2 3.2c-1.2 1.2-2.6 2.5-4.1 3.9-1.5 1.3-3 2.6-4.4 3.7-1.4 1.1-2.8 2-4 2.8-1.2.7-2.3 1.1-3 1.1-1.4 0-2.6-.4-3.6-1.3s-1.5-2.1-1.5-3.6c0-.8.4-2.2 1.2-4.1.8-1.9 1.9-4.1 3.2-6.6 1.3-2.5 2.8-5.2 4.5-8.1l5.1-8.7c-3 3.5-6.2 6.9-9.5 10.2-3.3 3.4-6.6 6.2-9.9 8.5-.8 1.5-1.8 3.1-2.9 4.7-1.1 1.6-2.4 3.1-3.7 4.4-1.4 1.3-2.8 2.4-4.3 3.3-1.5.9-3.1 1.3-4.6 1.3-1.4 0-2.6-.2-3.6-.5-1-.4-1.8-.8-2.4-1.4-.6-.6-1.1-1.3-1.4-2.1s-.4-1.6-.4-2.5c0-.5.1-1.1.4-1.9.2-.8.5-1.6.9-2.5.4-.9.8-1.7 1.2-2.6.4-.8.9-1.6 1.3-2.1-.1-.4-.2-.8-.3-1.1 0-.4-.1-.7-.1-1 0-1.2.5-2.5 1.4-3.8 1-1.3 2.1-2.5 3.5-3.6s2.9-2 4.5-2.7 3.1-1 4.4-1c1.3 0 2.5.3 3.5.8 1.1.6 2 1.2 2.7 2.1.5.6 1.1 1.6 1.5 2.6.4 1 .6 2 .6 2.9 0 .1 0 .4-.1.9 2.1-1.8 4.3-3.9 6.5-6.1l6.6-6.9c2.1-2.4 4.2-4.7 6.1-7 1.9-2.3 3.7-4.4 5.3-6.3 1.6-1.9 2.9-3.6 4.1-4.9 1-1.4 1.9-2.4 2.3-2.8zm-49.9 50c.7 0 1.7-.5 2.8-1.6 1.2-1.1 2.4-2.4 3.6-4.1-.2 0-.5.1-.8.1h-.8c-1.6 0-3.1-.5-4.4-1.6-.4 1-.7 2-1 3-.3 1.1-.4 1.9-.4 2.7.2 1 .5 1.5 1 1.5zm12.9-21.9c-1.4 0-2.8.3-4.2.8-1.4.6-2.7 1.2-3.8 2.1s-2.1 1.7-2.8 2.7c-.7.9-1.1 1.8-1.1 2.5 0 1.4.5 2.6 1.5 3.5s2.3 1.4 3.8 1.4c.9 0 1.8-.2 2.8-.6.7-1.1 1.3-2.1 1.9-3.2.6-1.1 1.1-2.1 1.6-3 .4-1 .8-1.8 1-2.6.3-.8.4-1.5.4-2.1.2-1-.3-1.5-1.1-1.5z"/>
</svg>
