<svg xmlns="http://www.w3.org/2000/svg" viewBox="-151 702.31 292.604 45">
    <path d="M-43.325 732.284a.348.348 0 01.252-.107c.192 0 .36.103.504.306.144.204.216.414.216.63a.532.532 0 01-.144.396c-1.057 1.057-2.31 2.214-3.762 3.474s-3.102 2.431-4.95 3.51c-1.849 1.08-3.883 1.986-6.102 2.719-2.22.731-4.626 1.098-7.218 1.098-1.752 0-3.36-.246-4.824-.738s-2.718-1.158-3.762-1.998-1.854-1.817-2.43-2.934a7.553 7.553 0 01-.864-3.51c0-1.392.3-2.88.9-4.464s1.416-3.198 2.448-4.843a43.072 43.072 0 013.618-4.914 58.242 58.242 0 014.428-4.68 61.027 61.027 0 014.878-4.158 47.727 47.727 0 014.968-3.348c1.631-.948 3.198-1.692 4.698-2.232s2.85-.81 4.05-.81c1.104 0 2.112.187 3.024.558.912.373 1.692.864 2.34 1.477s1.146 1.302 1.494 2.069c.348.769.522 1.549.522 2.341 0 .912-.247 1.95-.738 3.113-.492 1.165-1.14 2.358-1.944 3.582a30.06 30.06 0 01-2.772 3.582c-1.044 1.165-2.112 2.202-3.204 3.114s-2.178 1.65-3.258 2.214c-1.08.564-2.052.847-2.916.847-.409 0-.78-.072-1.116-.217-.336-.144-.63-.317-.882-.521s-.45-.42-.594-.648c-.144-.228-.216-.438-.216-.63 0-.36.216-.54.648-.54.744 0 1.625-.275 2.646-.828 1.02-.552 2.082-1.283 3.186-2.195s2.202-1.938 3.294-3.078a33.886 33.886 0 002.934-3.492c.864-1.188 1.56-2.334 2.088-3.438s.792-2.063.792-2.88c0-.695-.229-1.254-.684-1.674-.456-.42-1.224-.63-2.304-.63-1.608 0-3.438.498-5.49 1.494s-4.152 2.31-6.3 3.941a58.15 58.15 0 00-6.282 5.562c-2.04 2.076-3.864 4.2-5.472 6.372s-2.904 4.29-3.888 6.354-1.476 3.9-1.476 5.509c0 1.56.552 2.813 1.656 3.762 1.104.947 2.928 1.422 5.472 1.422 2.52 0 4.902-.312 7.146-.937 2.244-.623 4.32-1.422 6.228-2.394s3.636-2.04 5.184-3.204 2.874-2.3 3.978-3.404z"/>
    <path d="M-28.745 732.284c.072-.071.144-.107.216-.107.192 0 .366.103.522.306.156.204.234.414.234.63 0 .288-.234.583-.702.883s-1.068.588-1.8.863c-.732.276-1.542.522-2.43.738s-1.752.384-2.592.504c-.432.696-.912 1.374-1.44 2.034s-1.098 1.254-1.71 1.782-1.248.954-1.908 1.277a4.5 4.5 0 01-1.998.486c-.697 0-1.291-.09-1.782-.271-.492-.18-.895-.421-1.206-.722-.312-.301-.54-.644-.684-1.028s-.216-.794-.216-1.228c0-.24.059-.554.176-.938.117-.385.271-.794.458-1.227.188-.434.394-.86.617-1.281.224-.421.442-.775.657-1.064-.121-.265-.18-.638-.18-1.119 0-.602.241-1.233.722-1.895s1.071-1.264 1.77-1.805 1.451-.992 2.257-1.354c.807-.36 1.535-.541 2.186-.541.649 0 1.239.139 1.769.416s.975.628 1.336 1.05.644.887.849 1.393c.205.507.307.989.307 1.448 0 .265-.078.627-.234 1.085-.156.459-.366.978-.63 1.556a18.315 18.315 0 003.222-.684c.996-.31 1.733-.707 2.214-1.187zm-14.109 7.669c.412 0 .974-.354 1.688-1.062.714-.708 1.434-1.566 2.16-2.574a15.01 15.01 0 01-1.761-.162 6.404 6.404 0 01-1.506-.414 11.668 11.668 0 00-.708 1.782c-.206.66-.308 1.219-.308 1.674 0 .503.145.756.435.756zm6.437-10.945c-.7 0-1.4.144-2.1.432s-1.333.63-1.9 1.026-1.032.805-1.394 1.224c-.362.421-.542.751-.542.99 0 .265.12.492.361.684.242.192.573.354.996.486.422.132.917.24 1.484.324s1.177.139 1.829.162a20.267 20.267 0 001.357-2.61c.35-.828.525-1.481.525-1.962 0-.504-.205-.756-.616-.756z"/>
    <path d="M4.015 732.284a.348.348 0 01.252-.107c.167 0 .33.107.486.324.156.216.234.432.234.647a.485.485 0 01-.144.36c-.144.144-.42.414-.828.81a58.354 58.354 0 01-3.366 2.988c-.684.564-1.356 1.08-2.016 1.548s-1.278.858-1.854 1.17-1.056.468-1.44.468c-.504 0-1.026-.138-1.566-.413-.54-.276-1.062-.618-1.566-1.026s-.96-.846-1.368-1.314a9.117 9.117 0 01-.936-1.241 19.542 19.542 0 00-1.512 2.573c-.384.805-.576 1.482-.576 2.034 0 .385-.144.576-.432.576-.216 0-.468-.102-.756-.306s-.564-.48-.828-.828-.486-.75-.666-1.206a3.792 3.792 0 01-.27-1.404c0-.407.174-1.038.522-1.89s.804-1.836 1.368-2.952a83.372 83.372 0 011.962-3.636c.744-1.309 1.512-2.61 2.304-3.906-1.032 1.152-2.112 2.322-3.24 3.51s-2.274 2.347-3.438 3.475-2.31 2.189-3.438 3.186a46.02 46.02 0 01-3.24 2.628c-1.032.756-1.993 1.35-2.88 1.782-.888.432-1.668.647-2.34.647-.504 0-.984-.083-1.44-.252a3.694 3.694 0 01-1.206-.722 3.885 3.885 0 01-.846-1.082 2.816 2.816 0 01-.324-1.336c0-.577.162-1.263.486-2.057s.756-1.618 1.296-2.472 1.146-1.702 1.818-2.545a21.977 21.977 0 012.052-2.255c.696-.662 1.368-1.197 2.016-1.606.648-.408 1.224-.613 1.728-.613.456 0 .876.084 1.26.253s.708.374.972.615.474.512.63.813c.156.302.234.573.234.814 0 .506-.103 1.061-.306 1.663-.204.604-.462 1.17-.774 1.7s-.666.977-1.062 1.338c-.396.362-.787.543-1.17.543-.265 0-.504-.055-.72-.162a2.125 2.125 0 01-.558-.396 2.286 2.286 0 01-.378-.485c-.096-.168-.144-.312-.144-.433 0-.216.12-.324.36-.324.264 0 .563-.186.9-.558.335-.372.648-.798.936-1.278.288-.479.527-.954.72-1.422.192-.468.288-.81.288-1.025 0-.12-.036-.181-.107-.181-.167 0-.454.187-.86.559s-.866.858-1.379 1.458c-.514.6-1.051 1.272-1.612 2.016s-1.074 1.494-1.54 2.25-.848 1.488-1.146 2.196c-.299.708-.448 1.302-.448 1.782 0 .359.102.647.305.863s.544.324 1.024.324c.526 0 1.203-.252 2.029-.756.826-.504 1.76-1.188 2.802-2.052s2.155-1.866 3.34-3.007c1.185-1.139 2.382-2.333 3.591-3.581s2.408-2.515 3.595-3.799c1.188-1.283 2.303-2.514 3.347-3.689s1.992-2.25 2.844-3.223a727.06 727.06 0 012.106-2.394c.432-.576.762-.983.99-1.224s.51-.36.846-.36c.24 0 .48.061.72.18.239.121.461.265.666.433.204.168.365.348.486.54.12.192.18.348.18.468 0 .048-.024.096-.072.144-.769.769-1.602 1.771-2.502 3.006-.9 1.237-1.8 2.593-2.7 4.068-.9 1.477-1.782 3.006-2.646 4.59a83.708 83.708 0 00-2.34 4.608c.792-.989 1.584-1.9 2.376-2.732a29.452 29.452 0 012.232-2.136c.696-.591 1.314-1.05 1.854-1.375.54-.326.942-.489 1.206-.489.167 0 .39.078.666.234.276.157.545.361.81.614.264.253.492.548.684.885.192.338.288.687.288 1.047 0 .482-.229 1.06-.684 1.733a14.42 14.42 0 01-1.728 2.059 20.034 20.034 0 01-2.322 1.985c-.852.626-1.686 1.107-2.502 1.444.408.626.87 1.155 1.386 1.589.516.433.99.649 1.422.649.167 0 .45-.12.846-.36.396-.239.846-.552 1.35-.936.504-.384 1.038-.81 1.602-1.278a71.392 71.392 0 001.602-1.368c.504-.443.954-.846 1.35-1.205.396-.36.678-.623.847-.792zm-6.265-4.212c-.696.528-1.524 1.255-2.484 2.179a45.804 45.804 0 00-2.844 3.006c0 .072.006.144.018.216.012.072.018.144.018.216.504-.288 1.02-.642 1.548-1.062s1.032-.87 1.512-1.351c.479-.479.912-.995 1.296-1.548a9.637 9.637 0 00.936-1.656z"/>
    <path d="M17.19 722.6c.408.432.612.948.612 1.548 0 .528-.121.996-.36 1.404-.24.408-.457.612-.648.612-.168 0-.252-.204-.252-.612s-.378-.684-1.134-.828-1.674-.216-2.754-.216h-.864c-.96 1.561-1.908 3.149-2.844 4.77s-1.782 3.127-2.538 4.519-1.368 2.58-1.836 3.563c-.468.984-.702 1.62-.702 1.908 0 .097.036.145.108.145.216 0 .588-.181 1.116-.54.528-.36 1.116-.811 1.764-1.351s1.326-1.121 2.034-1.746a123.25 123.25 0 001.944-1.746c.587-.54 1.074-.989 1.458-1.35.383-.36.587-.54.612-.54.192 0 .366.114.522.342.156.229.234.45.234.666a.485.485 0 01-.144.36c-.12.144-.408.444-.864.899-.456.457-1.002.984-1.638 1.584a121.46 121.46 0 01-2.07 1.908 45.11 45.11 0 01-2.178 1.854c-.708.564-1.374 1.025-1.998 1.386s-1.128.54-1.512.54a2.744 2.744 0 01-1.818-.648c-.516-.432-.774-1.031-.774-1.8 0-.432.216-1.14.648-2.124a55.15 55.15 0 011.692-3.456 117.55 117.55 0 012.376-4.266 242.734 242.734 0 012.7-4.518c-1.008.168-1.89.354-2.646.558s-1.242.414-1.458.63c-.072.072-.144.108-.216.108s-.132-.06-.18-.181a1.159 1.159 0 01-.072-.432c0-.6.516-1.122 1.548-1.566 1.032-.443 2.484-.857 4.356-1.241a381.385 381.385 0 012.358-3.744c.66-1.032 1.224-1.866 1.692-2.502s.852-1.099 1.152-1.387c.3-.288.558-.432.774-.432.24 0 .48.061.72.18.24.121.462.265.666.433.204.168.366.348.486.54.12.192.18.348.18.468 0 .048-.139.252-.414.612a120.889 120.889 0 00-2.394 3.24c-.48.673-.924 1.332-1.332 1.98.264-.023.522-.042.774-.054.252-.013.498-.019.738-.019.552 0 1.038.042 1.458.126.42.087.726.225.918.416z"/>
    <path d="M42.318 732.248c.072-.072.144-.108.216-.108.192 0 .366.114.522.342.156.229.234.45.234.666a.485.485 0 01-.144.36c-.144.12-.42.384-.828.792s-.9.87-1.476 1.386a58.354 58.354 0 01-1.89 1.62 34.995 34.995 0 01-2.016 1.548c-.661.468-1.279.858-1.856 1.17s-1.059.468-1.447.468c-.703 0-1.315-.275-1.837-.827s-.782-1.212-.782-1.98c0-.432.14-1.008.418-1.728.279-.721.625-1.5 1.037-2.341a41.972 41.972 0 01-2.001 1.872c-.685.601-1.353 1.135-2.001 1.603s-1.28.84-1.892 1.116c-.613.275-1.172.414-1.676.414-.577 0-1.058-.091-1.442-.271s-.697-.426-.937-.738c-.241-.312-.409-.678-.505-1.098s-.144-.857-.144-1.314c0-.839.132-1.679.396-2.52-.816.672-1.74 1.519-2.772 2.538a136.605 136.605 0 01-3.078 2.952 35.532 35.532 0 01-2.88 2.43c-.9.672-1.638 1.008-2.214 1.008-.696 0-1.23-.264-1.602-.792-.372-.527-.558-1.199-.558-2.016 0-.6.18-1.332.54-2.196s.846-1.758 1.458-2.682 1.308-1.842 2.088-2.754a22.061 22.061 0 012.43-2.448c.84-.72 1.668-1.302 2.484-1.746.816-.443 1.572-.666 2.268-.666.456 0 .876.072 1.26.216.383.145.708.337.972.576.264.24.474.511.63.811s.234.605.234.918c0 .336-.103.594-.306.773-.204.18-.402.271-.594.271-.121 0-.21-.072-.27-.217a8.165 8.165 0 00-.216-.468c-.084-.167-.198-.324-.342-.468s-.36-.216-.648-.216c-.36 0-.834.24-1.422.72s-1.219 1.086-1.89 1.818c-.672.732-1.356 1.536-2.052 2.412s-1.326 1.71-1.89 2.502-1.026 1.481-1.386 2.069c-.36.589-.54.954-.54 1.099 0 .048.024.071.072.071.144 0 .504-.228 1.08-.684s1.26-1.031 2.052-1.729a202.195 202.195 0 015.274-4.463 28.264 28.264 0 012.322-1.728c.696-.456 1.211-.685 1.548-.685.264 0 .54.061.828.181.288.12.545.27.774.45.228.18.414.359.558.54.144.18.216.33.216.449 0-.023-.06.097-.18.36-.12.265-.252.601-.396 1.008-.144.408-.276.846-.396 1.314s-.18.882-.18 1.242c0 .6.145.899.434.899.312 0 .764-.198 1.355-.594a20.668 20.668 0 001.97-1.53 54.837 54.837 0 002.241-2.052 186.479 186.479 0 003.936-3.906c.504-.516.84-.869 1.008-1.062.216-.217.492-.324.828-.324.264 0 .54.061.828.18a3.44 3.44 0 011.332.99c.144.18.216.33.216.45 0 .072-.013.12-.036.144-.168.168-.414.48-.738.937-.324.456-.679.989-1.062 1.602-.384.612-.774 1.26-1.17 1.944a42.626 42.626 0 00-1.08 1.979 22.245 22.245 0 00-.792 1.71c-.205.504-.306.877-.306 1.116 0 .192.072.288.216.288.168 0 .45-.126.846-.378s.846-.57 1.35-.954 1.038-.81 1.602-1.278a73.738 73.738 0 001.602-1.367c.504-.444.954-.847 1.35-1.206.395-.358.676-.622.845-.79zm-.828-15.264c.336-.336.708-.504 1.116-.504.36 0 .714.108 1.062.324.348.216.666.48.954.792s.516.63.684.954.252.606.252.846c0 .337-.168.504-.504.504-.264 0-.606.162-1.026.486-.42.324-.828.708-1.224 1.152s-.732.882-1.008 1.313c-.276.432-.414.756-.414.972 0 .288-.192.433-.576.433-.336 0-.702-.12-1.098-.36-.396-.239-.594-.552-.594-.936 0-.408.078-.9.234-1.477.156-.576.348-1.157.576-1.746.228-.588.48-1.127.756-1.619s.546-.87.81-1.134z"/>
    <path d="M52.973 715.004c.24-.216.516-.324.828-.324.24 0 .48.061.72.18.24.121.462.265.666.433.204.168.366.348.486.54.12.192.18.348.18.468 0 .048-.024.096-.072.144-.504.504-1.182 1.368-2.034 2.593a101.4 101.4 0 00-2.772 4.229 226.555 226.555 0 00-3.042 5.022c-1.032 1.752-1.968 3.396-2.808 4.932s-1.524 2.856-2.052 3.96-.792 1.812-.792 2.124c0 .096.036.144.108.144.168 0 .426-.102.774-.306.348-.203.75-.479 1.206-.828a40.47 40.47 0 001.458-1.17c.516-.432 1.038-.876 1.566-1.332 1.2-1.056 2.52-2.268 3.96-3.636.167 0 .33.107.486.324.156.216.234.432.234.647a.485.485 0 01-.144.36c-.12.144-.408.444-.864.899-.456.457-1.002.99-1.638 1.603-.636.612-1.326 1.254-2.07 1.926s-1.47 1.284-2.178 1.836a19.352 19.352 0 01-1.998 1.386c-.624.373-1.128.559-1.512.559a2.744 2.744 0 01-1.818-.648c-.516-.432-.774-1.031-.774-1.8 0-.384.18-1.008.54-1.872s.84-1.872 1.44-3.023c.6-1.152 1.284-2.406 2.052-3.763.768-1.355 1.566-2.724 2.394-4.104s1.65-2.718 2.466-4.015a327.112 327.112 0 012.25-3.527 80.273 80.273 0 011.764-2.628c.492-.697.822-1.14.99-1.333z"/>
    <path d="M65.79 732.248c.383 0 .684.102.9.306s.324.402.324.594c0 .24-.132.36-.396.36-.48 0-1.074.09-1.782.27a22.34 22.34 0 00-2.304.738 37.48 37.48 0 00-2.592 1.098c-.9.421-1.782.858-2.646 1.314.312.384.563.769.756 1.152.192.384.288.756.288 1.115 0 .696-.265 1.339-.792 1.927a8.056 8.056 0 01-1.872 1.529c-.72.433-1.46.774-2.22 1.026s-1.377.378-1.851.378a2.34 2.34 0 01-1.023-.252c-.348-.168-.666-.378-.954-.63s-.522-.54-.702-.864-.27-.642-.27-.954c0-.359.138-.737.414-1.134.275-.396.648-.792 1.116-1.188s1.017-.797 1.647-1.205 1.301-.805 2.013-1.188a42.026 42.026 0 01-.871-1.062 13.11 13.11 0 01-.8-1.116c-.238-.372-.433-.732-.587-1.08s-.231-.678-.231-.99c0-.36.136-.786.409-1.278a9.4 9.4 0 011.067-1.512c.439-.516.938-1.025 1.5-1.53.56-.504 1.129-.953 1.705-1.35.576-.396 1.14-.72 1.692-.972s1.032-.378 1.44-.378c.456 0 .875.084 1.26.252.384.168.72.372 1.008.611.288.24.51.511.666.811s.234.57.234.81c0 .504-.103 1.057-.306 1.656a8.998 8.998 0 01-.774 1.692 5.723 5.723 0 01-1.062 1.332c-.396.359-.787.54-1.17.54-.265 0-.504-.055-.72-.162a2.396 2.396 0 01-.558-.378 1.968 1.968 0 01-.378-.469.948.948 0 01-.144-.468c0-.216.12-.324.36-.324.264 0 .563-.174.9-.521.335-.348.653-.756.954-1.225.3-.468.552-.923.756-1.367.204-.444.306-.762.306-.954 0-.096-.036-.145-.108-.145-.48 0-1.062.252-1.746.756-.684.504-1.35 1.093-1.998 1.765s-1.201 1.338-1.656 1.998c-.456.66-.684 1.146-.684 1.458 0 .288.18.647.54 1.08.36.432.78.899 1.26 1.403a69.941 69.941 0 013.06-1.296 52.32 52.32 0 012.862-1.044c.876-.288 1.65-.516 2.322-.684s1.149-.251 1.438-.251zM55.421 738.8c0-.096-.108-.312-.324-.648-1.272.744-2.328 1.435-3.168 2.07-.84.636-1.26 1.11-1.26 1.422 0 .048.048.072.144.072.192 0 .54-.102 1.044-.306s1.02-.456 1.548-.757c.528-.3.996-.617 1.404-.954.408-.334.612-.634.612-.899z"/>
</svg>
