<svg xmlns="http://www.w3.org/2000/svg" viewBox="0 0 400 100">
    <path d="M212.3 16.3c.8 0 1.5.2 2.2.5.7.3 1.4.8 1.9 1.3.6.5 1 1.1 1.4 1.7.3.6.5 1.2.5 1.8 0 1-.5 2.5-1.4 4.5-.9 2.1-2.2 4.5-3.7 7.3s-3.3 5.8-5.2 9.1c-1.9 3.3-3.9 6.6-6 10-2 3.4-4 6.8-6 10.1-1.9 3.3-3.7 6.4-5.2 9.2-1.5 2.8-2.8 5.3-3.7 7.5-.9 2.2-1.4 3.8-1.4 4.8 0 .8-.4 1.2-1.2 1.2-.5 0-1.1-.2-1.8-.5-.6-.4-1.3-.8-1.9-1.4-.6-.6-1.1-1.3-1.5-2.2-.4-.8-.6-1.7-.6-2.7 0-.9.5-2.4 1.5-4.5s2.3-4.5 3.9-7.4 3.5-5.9 5.5-9.2c2.1-3.3 4.2-6.7 6.3-10 2.2-3.4 4.3-6.7 6.3-9.9 2.1-3.2 3.9-6.1 5.5-8.6 1.6-2.6 2.9-4.7 3.9-6.4 1-1.7 1.5-2.7 1.5-3.1 0-.1 0-.1-.1-.1-.5 0-1.7.7-3.4 2.2-1.8 1.5-3.9 3.4-6.4 5.8-2.5 2.4-5.3 5.2-8.4 8.4-3 3.1-6.1 6.4-9.3 9.7s-6.1 6.6-9 9.9c-2.9 3.3-5.5 6.3-7.8 9s-4.1 5.1-5.5 7c-1.4 1.9-2.1 3.2-2.1 3.8 0 .8-.4 1.2-1.2 1.2-.5 0-1.1-.2-1.8-.5-.6-.4-1.3-.8-1.9-1.4-.6-.6-1.1-1.3-1.5-2.2-.4-.8-.6-1.7-.6-2.7 0-.9.4-2.4 1.3-4.4.9-2 2-4.3 3.5-7.1 1.4-2.7 3.1-5.7 4.9-8.9 1.8-3.2 3.7-6.4 5.6-9.6 1.9-3.2 3.8-6.3 5.6-9.4 1.8-3 3.5-5.8 4.9-8.3 1.4-2.5 2.6-4.5 3.5-6.2s1.3-2.7 1.3-3.1c0-.1 0-.2-.1-.2-.2 0-1 .7-2.3 2-1.3 1.3-3 3.1-5.2 5.4s-4.6 4.9-7.3 8c-2.8 3-5.7 6.3-8.7 9.8-3 3.5-6.2 7-9.4 10.8-3.2 3.7-6.3 7.4-9.3 11-3 3.6-5.8 7.1-8.5 10.4-2.7 3.3-5 6.3-7 9s-3.6 4.9-4.7 6.8c-1.2 1.9-1.7 3.1-1.7 3.8 0 .8-.4 1.2-1.1 1.2-.4 0-.9-.2-1.5-.5-.6-.4-1.2-.8-1.7-1.4-.5-.6-1-1.3-1.4-2.2-.4-.8-.6-1.7-.6-2.7 0-.8.5-2.1 1.5-4s2.3-4.2 3.9-6.8c1.6-2.6 3.4-5.5 5.5-8.6 2-3.1 4.1-6.3 6.3-9.5s4.3-6.4 6.3-9.6c2-3.1 3.9-6 5.5-8.6 1.6-2.6 2.9-4.9 3.9-6.8 1-1.9 1.5-3.3 1.5-4 0-.3-.1-.6-.2-.6-.1-.1-.5-.1-.9-.1-.9 0-2.3.2-4.3.6-1.9.4-4.2 1-6.8 1.7-2.6.7-5.3 1.5-8.3 2.4-3 .9-5.9 1.9-8.9 3s-5.8 2.2-8.6 3.3c-2.7 1.2-5.1 2.3-7.2 3.4-2.1 1.1-3.8 2.2-5 3.2-1.3 1-1.9 2-1.9 2.8 0 1.1-.4 1.6-1.1 1.6-.4 0-.8-.1-1.2-.4-.4-.3-.8-.7-1.2-1.2-.4-.5-.7-1.1-.9-1.7-.3-.7-.4-1.4-.4-2.1 0-1.1.6-2.3 1.9-3.5 1.3-1.2 3-2.4 5.1-3.6 2.2-1.2 4.6-2.4 7.5-3.5 2.8-1.2 5.7-2.2 8.8-3.2 3-1 6.1-1.9 9.2-2.8 3.1-.9 6-1.6 8.7-2.2 2.7-.6 5.2-1.1 7.3-1.5 2.1-.4 3.7-.5 4.9-.5 1.1 0 2.2.2 3.2.7 1 .5 1.9 1.1 2.7 1.8.8.7 1.4 1.6 1.8 2.6.5 1 .7 1.9.7 2.8 0 1-.6 2.6-1.7 4.8-1.1 2.2-2.6 4.9-4.4 7.9-1.8 3-3.9 6.3-6.1 9.9-2.3 3.6-4.5 7.1-6.7 10.7 3-3.8 6.1-7.7 9.5-11.8 3.4-4.1 6.7-8 10.1-11.9 3.4-3.9 6.7-7.6 9.9-11.1s6.2-6.5 8.8-9.1c2.7-2.6 5-4.7 6.9-6.2 1.9-1.5 3.3-2.3 4.2-2.3.8 0 1.6.2 2.4.5.8.3 1.5.8 2.2 1.3.6.5 1.2 1.1 1.5 1.7.4.6.6 1.2.6 1.8 0 .9-.3 2.1-1 3.8-.6 1.7-1.5 3.6-2.6 5.8-1.1 2.2-2.4 4.6-3.8 7.3s-3 5.4-4.5 8.2c-1.6 2.8-3.2 5.7-4.8 8.6-1.6 2.9-3.1 5.7-4.6 8.4 2.4-2.8 4.9-5.7 7.7-8.8 2.8-3.1 5.6-6.1 8.5-9.1 2.9-3 5.7-5.9 8.5-8.6 2.8-2.7 5.4-5.1 7.8-7.2s4.5-3.7 6.3-5c1.9-1.5 3.2-2.1 4.1-2.1zM234 62.7c.1-.1.3-.2.5-.2.4 0 .7.2 1 .6.3.4.4.8.4 1.3 0 .3-.1.6-.3.8-.4.4-1.2 1.1-2.2 2.1-1 1-2.2 2.1-3.6 3.3s-3 2.5-4.7 3.7c-1.7 1.3-3.5 2.4-5.4 3.5-1.9 1.1-3.8 2-5.8 2.6-2 .7-3.9 1-5.9 1-1 0-1.9-.2-2.8-.6-.8-.4-1.6-.9-2.2-1.5-.6-.6-1.1-1.4-1.4-2.2s-.5-1.7-.5-2.6c0-1.2.3-2.6 1-4.2.6-1.7 1.5-3.4 2.6-5.2 1.1-1.8 2.3-3.6 3.6-5.4 1.3-1.8 2.7-3.4 4.1-4.8 1.4-1.4 2.7-2.6 4.1-3.5 1.3-.9 2.5-1.3 3.4-1.3.9 0 1.8.2 2.5.5.8.3 1.4.8 1.9 1.3s.9 1.1 1.3 1.7c.3.6.5 1.1.5 1.6 0 1.2-.5 2.8-1.4 4.7-.9 1.9-2.2 3.8-3.8 5.7-1.6 1.9-3.4 3.6-5.5 5-2.1 1.5-4.3 2.4-6.7 2.7v.6c0 1.8.9 2.7 2.8 2.7 1.2 0 2.6-.3 4.1-.9 1.5-.6 3-1.3 4.6-2.2s3.1-1.9 4.6-3 2.9-2.2 4.1-3.2c1.2-1 2.3-2 3.2-2.8.9-.8 1.5-1.4 1.9-1.8zm-11.9-9.5c-.4 0-1.1.5-2.1 1.5s-2.1 2.2-3.2 3.7c-1.2 1.5-2.4 3.2-3.6 5-1.2 1.8-2.2 3.6-3 5.3 1-.1 1.9-.6 2.9-1.3 1-.7 1.9-1.6 2.8-2.6.9-1 1.7-2.1 2.5-3.2.8-1.2 1.4-2.3 2-3.3s1-2 1.3-2.9c.3-.8.5-1.5.5-1.8.1-.3 0-.4-.1-.4z"/>
    <path d="M270.1 62.5c.1-.1.3-.2.5-.2.3 0 .7.2 1 .6.3.4.5.9.5 1.3 0 .3-.1.5-.3.7-.3.3-.8.8-1.7 1.6-.8.8-1.8 1.7-3 2.7-1.2 1-2.4 2.1-3.7 3.2-1.3 1.1-2.7 2.2-4 3.1-1.3.9-2.6 1.7-3.7 2.3-1.2.6-2.1.9-2.9.9-1.4 0-2.7-.6-3.7-1.7s-1.5-2.4-1.5-4c0-.6.1-1.4.4-2.4.2-1 .5-2.1.9-3.2.4-1.2.8-2.3 1.2-3.5.5-1.2.9-2.4 1.3-3.5-1.7 1.3-3.5 3-5.5 4.9-2 1.9-3.9 3.9-5.6 5.8-1.7 1.9-3.2 3.7-4.4 5.4-1.2 1.6-1.8 2.8-1.8 3.5 0 .9-.4 1.4-1.1 1.4-.4 0-.8-.2-1.3-.5s-1-.7-1.4-1.3c-.4-.5-.8-1.2-1.1-1.9-.3-.8-.5-1.6-.5-2.5 0-.4.2-1.2.5-2.3.4-1.1.8-2.4 1.4-3.9.6-1.4 1.3-2.9 2.1-4.5s1.6-3 2.4-4.3c.8-1.3 1.7-2.4 2.5-3.2.8-.8 1.6-1.3 2.3-1.3.5 0 1 .1 1.4.4.5.2.9.5 1.3.9.4.3.7.7 1 1.1.2.4.4.7.4.9 0 .1 0 .2-.1.3-1.3 1.4-2.7 3.1-4.2 5.2s-2.7 4.3-3.7 6.8c1.5-1.9 3.3-3.8 5.3-5.8s4-3.8 5.9-5.4c1.9-1.6 3.6-2.9 5.1-4 1.5-1.1 2.5-1.6 3.1-1.6.5 0 1 .1 1.5.4.5.2 1 .5 1.4.9.4.3.7.7 1 1.1.2.4.4.7.4.9 0 .1 0 .2-.1.3-.5.5-1 1.4-1.6 2.6-.6 1.3-1.2 2.7-1.7 4.2-.6 1.5-1 3-1.4 4.5-.4 1.5-.5 2.7-.5 3.5 0 .9.2 1.4.6 1.4.3 0 .9-.2 1.7-.7s1.7-1.1 2.7-1.9c1-.8 2.1-1.6 3.2-2.6 1.1-.9 2.2-1.8 3.2-2.7 1-.9 1.9-1.7 2.7-2.4s1.3-1.1 1.6-1.5z"/>
    <path d="M306.4 62.3c.1-.1.3-.2.5-.2.3 0 .7.2 1 .6.3.4.5.9.5 1.3 0 .3-.1.6-.3.8-.3.2-.8.8-1.7 1.6-.8.8-1.8 1.7-3 2.8-1.2 1-2.4 2.1-3.7 3.2s-2.7 2.2-4 3.1-2.6 1.7-3.7 2.3c-1.2.6-2.1.9-2.9.9-.7 0-1.4-.2-2.2-.5-.7-.3-1.4-.7-1.9-1.2-.6-.5-1-1.1-1.3-1.8-.3-.7-.5-1.4-.5-2.2 0-.8.2-1.9.6-3.3.4-1.4 1-2.9 1.7-4.5-1.6 1.9-3.3 3.8-5 5.8-1.7 1.9-3.3 3.7-4.9 5.2-1.5 1.6-2.9 2.8-4.2 3.8-1.2 1-2.2 1.4-2.9 1.4-1.7 0-3-.5-3.9-1.6-.9-1.1-1.3-2.4-1.3-4 0-.7.2-1.7.7-3 .5-1.2 1.1-2.6 1.9-4.1.8-1.5 1.6-3.1 2.6-4.7s1.9-3.1 2.8-4.5c.9-1.4 1.8-2.7 2.6-3.8.8-1.1 1.4-1.9 1.9-2.4.5-.4 1-.6 1.7-.6.5 0 1 .1 1.4.4.5.2.9.5 1.3.9s.7.7 1 1.1c.2.4.4.7.4.9 0 .1 0 .2-.1.3-.3.3-.9 1-1.5 1.9-.7 1-1.5 2.1-2.3 3.3-.9 1.3-1.7 2.6-2.6 4.1-.9 1.5-1.7 2.9-2.4 4.2-.7 1.3-1.3 2.6-1.8 3.7s-.7 2-.7 2.6c0 .5.2.8.6.8.2 0 .9-.5 1.8-1.6 1-1.1 2.2-2.4 3.6-4s3-3.4 4.6-5.4c1.7-2 3.3-3.9 4.8-5.8 1.6-1.8 3-3.5 4.2-5s2.2-2.6 2.9-3.2c.4-.4.9-.6 1.5-.6.4 0 .9.1 1.3.4.5.3.9.6 1.2.9s.6.7.9 1.1c.2.4.3.7.3.9 0 .2 0 .3-.1.4-.5.5-1.2 1.6-2 3.2s-1.6 3.4-2.4 5.3-1.5 3.8-2 5.6c-.6 1.8-.8 3.2-.8 4.1 0 .7.2 1 .5 1s.9-.3 1.7-.8 1.7-1.1 2.7-1.9c1-.8 2-1.6 3.2-2.6 1.1-.9 2.2-1.8 3.2-2.7 1-.9 1.9-1.7 2.7-2.4.9-.6 1.4-1.2 1.8-1.5z"/>
</svg>
