<svg xmlns="http://www.w3.org/2000/svg" viewBox="0 0 400 100">
    <path d="M166.7 9.5c-.3-.3-.5-.6-.5-.9 0-.3.2-.5.6-.7.4-.2.9-.3 1.4-.3.6 0 1.3.1 2.1.4.8.2 1.5.6 2.2 1.2.7.5 1.2 1.2 1.7 2.1.5.9.7 1.9.7 3.2 0 1-.4 2.8-1.3 5.3-.8 2.5-2 5.5-3.5 8.9-1.5 3.4-3.2 7.2-5.2 11.3s-4.2 8.2-6.5 12.2c-2.3 4.1-4.7 8-7.2 11.8-2.5 3.8-5 7.2-7.6 10.2-2.5 3-5 5.3-7.4 7.1s-4.7 2.7-6.8 2.7c-1.3 0-2.7-.3-4-.8s-2.5-1.2-3.6-2.1c-1.1-.9-1.9-1.9-2.6-3.1-.6-1.2-1-2.5-1-3.9 0-1.6.5-3.9 1.4-7.1.9-3.1 2.1-6.6 3.6-10.5 1.5-3.8 3.1-7.8 4.9-11.9 1.8-4.1 3.5-7.9 5.2-11.5-2.8 3-6 6.5-9.6 10.4-3.6 3.9-7.2 7.9-10.9 12s-7.4 8.1-10.9 12.1c-3.6 4-6.7 7.6-9.5 10.9-2.8 3.3-5 6-6.7 8.3-1.7 2.2-2.6 3.6-2.6 4.2 0 .8-.4 1.2-1.1 1.2-.4 0-.9-.2-1.5-.5-.6-.4-1.2-.8-1.7-1.4-.5-.6-1-1.3-1.4-2.2-.4-.8-.6-1.7-.6-2.7 0-.8.5-2.2 1.6-4.3s2.4-4.7 4.2-7.7c1.7-3 3.7-6.3 5.9-9.9 2.2-3.6 4.5-7.3 6.8-11s4.6-7.4 6.8-11.1c2.2-3.6 4.2-7 5.9-10 1.7-3 3.1-5.6 4.2-7.8s1.6-3.6 1.6-4.5c0-.2-.1-.4-.2-.5-.1-.1-.5-.2-1-.2-1 0-2.6.2-4.8.6s-4.8 1-7.7 1.7c-2.9.7-6.1 1.5-9.5 2.4s-6.8 1.9-10.2 3c-3.4 1.1-6.7 2.2-9.8 3.3-3.1 1.2-5.9 2.3-8.4 3.4-2.4 1.1-4.4 2.2-5.8 3.3-1.4 1.1-2.2 2-2.2 2.9 0 1-.4 1.5-1.1 1.5-.3 0-.7-.1-1.2-.4-.4-.3-.8-.7-1.2-1.2-.4-.5-.7-1.1-1-1.7-.3-.7-.4-1.4-.4-2.1 0-1.1.7-2.3 2.2-3.5 1.5-1.2 3.5-2.4 6-3.6 2.5-1.2 5.4-2.3 8.7-3.5 3.3-1.2 6.7-2.2 10.2-3.3 3.5-1 7.1-2 10.6-2.8 3.5-.9 6.8-1.6 9.9-2.2 3.1-.6 5.8-1.1 8.1-1.5 2.4-.4 4.1-.5 5.2-.5 1.1 0 2.2.2 3.2.7s1.9 1.1 2.7 1.8c.8.7 1.4 1.6 1.8 2.6.5 1 .7 1.9.7 2.8 0 .8-.5 2.3-1.5 4.4-1 2.1-2.3 4.6-3.9 7.5-1.6 2.9-3.4 6.2-5.5 9.7-2.1 3.5-4.2 7.1-6.4 10.8-2.2 3.7-4.3 7.4-6.4 11.1-2.1 3.7-4 7.1-5.7 10.3 2.5-3 5.5-6.4 8.8-10.2 3.3-3.7 6.7-7.6 10.2-11.4 3.5-3.9 7.1-7.7 10.6-11.5s6.8-7.3 9.7-10.5c3-3.2 5.6-5.9 7.7-8.2 2.2-2.3 3.7-3.9 4.6-4.8.4-.4.9-.6 1.5-.6.5 0 1 .1 1.5.4.5.3 1 .6 1.4 1 .4.4.8.8 1.1 1.2s.4.8.4 1.2c0 .3-.1.6-.3.8-.4.4-1 1.3-1.8 2.6-.8 1.4-1.7 3.1-2.8 5.2-1.1 2.1-2.2 4.4-3.4 7-1.2 2.6-2.4 5.3-3.7 8.1-1.2 2.8-2.4 5.7-3.5 8.5-1.1 2.9-2.1 5.6-3 8.3-.9 2.6-1.6 5.1-2.1 7.3s-.8 4.1-.8 5.5c0 1.1.2 2 .5 2.6.3.6.9 1 1.7 1 1.2 0 2.7-.8 4.5-2.3 1.8-1.5 3.7-3.6 5.8-6.2 2.1-2.6 4.3-5.6 6.5-9 2.3-3.4 4.5-7 6.6-10.8 2.2-3.8 4.2-7.6 6.2-11.4 2-3.9 3.7-7.5 5.2-11s2.7-6.7 3.5-9.5 1.3-5.2 1.3-7c.4-1.2.1-2.2-.4-2.7zm49.2 16.8c.4-.4 1-.6 1.6-.6.5 0 1 .1 1.4.4.5.2.9.5 1.3.9.4.3.7.7 1 1.1.2.4.4.7.4.9 0 .1 0 .2-.1.3-1 1-2.4 2.7-4.1 5.2-1.7 2.4-3.6 5.3-5.5 8.5-2 3.2-4 6.5-6.1 10-2.1 3.5-3.9 6.8-5.6 9.9-1.7 3.1-3 5.7-4.1 7.9-1.1 2.2-1.6 3.6-1.6 4.2 0 .2.1.3.2.3.3 0 .9-.2 1.5-.6.7-.4 1.5-1 2.4-1.7.9-.7 1.9-1.5 2.9-2.3 1-.9 2.1-1.8 3.1-2.7 2.4-2.1 5-4.5 7.9-7.3.3 0 .7.2 1 .6.3.4.5.9.5 1.3 0 .3-.1.5-.3.7l-1.8 1.8-3.2 3.2c-1.2 1.2-2.6 2.5-4.1 3.9-1.5 1.3-3 2.6-4.4 3.7-1.4 1.1-2.8 2-4 2.8-1.2.7-2.2 1.1-3 1.1-1.4 0-2.6-.4-3.6-1.3s-1.5-2.1-1.5-3.6c0-.9.4-2.3 1.3-4.4.9-2 2-4.4 3.5-7.1 1.4-2.7 3-5.6 4.8-8.7 1.8-3.1 3.6-6.1 5.4-9.1-2.2 2.4-4.5 5-6.9 7.6-2.4 2.6-4.9 5.2-7.3 7.7-2.5 2.5-4.9 4.9-7.4 7.2-2.4 2.3-4.8 4.2-6.9 5.9-2.2 1.7-4.2 3-6.1 4s-3.5 1.5-4.8 1.5c-1 0-1.9-.2-2.8-.6-.8-.4-1.6-.9-2.2-1.5-.6-.6-1.1-1.4-1.4-2.2s-.5-1.7-.5-2.6c0-1.2.3-2.6 1-4.2.6-1.7 1.5-3.4 2.6-5.2 1.1-1.8 2.3-3.6 3.6-5.4 1.3-1.8 2.7-3.4 4.1-4.8 1.4-1.4 2.7-2.6 4.1-3.5 1.3-.9 2.5-1.3 3.4-1.3.9 0 1.8.2 2.5.5.8.3 1.4.8 1.9 1.3s.9 1.1 1.3 1.7c.3.6.5 1.1.5 1.6 0 .8-.2 1.8-.7 3-.5 1.2-1.1 2.5-1.9 3.8s-1.8 2.6-2.9 4-2.4 2.5-3.7 3.6-2.8 2-4.3 2.7c-1.5.7-3.1 1.1-4.8 1.2-.3.9-.4 1.6-.4 2.2 0 1.3.7 2 2.1 2 1 0 2.3-.6 4.1-1.8 1.8-1.2 3.8-2.8 6.1-4.8s4.7-4.2 7.3-6.8 5.3-5.3 7.9-8.1c2.7-2.8 5.3-5.6 7.8-8.4 2.6-2.8 4.9-5.4 7.1-7.8s4.1-4.5 5.7-6.4 2.8-3.2 3.6-4c.2-.3.5-.6.6-.8.3-.3.5-.4.5-.6zm-38.1 24.9c-.4 0-1 .5-2 1.4-.9 1-2 2.2-3.2 3.7-1.2 1.5-2.4 3.2-3.7 5s-2.4 3.6-3.3 5.4c1-.1 1.9-.5 3-1.2 1-.7 2-1.5 2.9-2.5.9-1 1.8-2.1 2.6-3.3.8-1.2 1.5-2.3 2.1-3.4.6-1.1 1.1-2.1 1.4-3 .3-.9.5-1.5.5-1.9-.1-.1-.2-.2-.3-.2z"/>
    <path d="M240.1 60.9c.1-.1.3-.2.5-.2.4 0 .7.2 1 .6s.4.8.4 1.3c0 .3-.1.6-.3.8-.4.4-1.2 1.1-2.2 2.1-1 1-2.2 2.1-3.6 3.3-1.4 1.2-3 2.5-4.7 3.7-1.7 1.3-3.5 2.4-5.4 3.5-1.9 1.1-3.8 1.9-5.8 2.6-2 .7-3.9 1-5.9 1-1 0-1.9-.2-2.8-.6-.8-.4-1.6-.9-2.2-1.5-.6-.6-1.1-1.4-1.4-2.2s-.5-1.7-.5-2.6c0-1.2.3-2.6 1-4.2.6-1.7 1.5-3.4 2.6-5.2 1.1-1.8 2.3-3.6 3.6-5.4 1.3-1.8 2.7-3.4 4.1-4.8 1.4-1.4 2.7-2.6 4.1-3.5 1.3-.9 2.5-1.3 3.4-1.3.9 0 1.8.2 2.5.5.8.3 1.4.8 1.9 1.3s.9 1.1 1.3 1.7c.3.6.5 1.1.5 1.6 0 1-.2 2.1-.6 3.3-.4 1.2-.9 2.3-1.5 3.4s-1.3 1.9-2.1 2.7-1.6 1.1-2.3 1.1c-.5 0-1-.1-1.4-.3-.4-.2-.8-.5-1.1-.8-.3-.3-.6-.6-.8-1-.2-.3-.3-.6-.3-.9 0-.4.2-.6.7-.6.5 0 1.1-.4 1.8-1.1.7-.7 1.3-1.6 1.9-2.5.6-1 1.1-1.9 1.4-2.9.4-.9.6-1.6.6-2.1 0-.2-.1-.4-.2-.4-.3 0-.9.4-1.7 1.1s-1.7 1.7-2.7 3c-1 1.2-2 2.6-3.1 4.1-1.1 1.5-2 3-2.9 4.6-.9 1.6-1.6 3.1-2.2 4.5s-.9 2.7-.9 3.7c0 .8.2 1.5.6 1.9.4.5 1.1.7 2.1.7 1.2 0 2.6-.3 4.1-.9 1.5-.6 3-1.3 4.6-2.2 1.5-.9 3.1-1.9 4.6-3s2.9-2.2 4.1-3.2c1.2-1 2.3-2 3.2-2.8 1-.9 1.7-1.5 2-1.9z"/>
    <path d="M269.9 60.9c.1-.1.3-.2.4-.2.4 0 .7.2 1 .6.3.4.5.8.5 1.3 0 .6-.5 1.2-1.4 1.8-.9.6-2.1 1.2-3.6 1.7-1.5.6-3.1 1-4.9 1.5-1.8.4-3.5.8-5.2 1-.9 1.4-1.8 2.7-2.9 4.1-1.1 1.3-2.2 2.5-3.4 3.6s-2.5 1.9-3.8 2.6c-1.3.6-2.7 1-4 1-1.4 0-2.6-.2-3.6-.5-1-.4-1.8-.8-2.4-1.4-.6-.6-1.1-1.3-1.4-2.1s-.4-1.6-.4-2.5c0-.5.1-1.1.4-1.9.2-.8.5-1.6.9-2.5.4-.9.8-1.7 1.2-2.6.4-.8.9-1.6 1.3-2.1-.2-.5-.4-1.3-.4-2.2 0-1.2.5-2.5 1.4-3.8s2.1-2.5 3.5-3.6 2.9-2 4.5-2.7c1.6-.7 3.1-1.1 4.4-1.1 1.3 0 2.5.3 3.5.8s2 1.3 2.7 2.1 1.3 1.8 1.7 2.8c.4 1 .6 2 .6 2.9 0 .5-.2 1.3-.5 2.2-.3.9-.7 2-1.3 3.1 2.3-.3 4.5-.7 6.4-1.4 2.3-.8 3.8-1.6 4.8-2.5zm-28.2 15.3c.8 0 1.9-.7 3.4-2.1 1.4-1.4 2.9-3.1 4.3-5.1-1.3 0-2.4-.2-3.5-.3-1.1-.2-2.1-.4-3-.8-.5 1.1-1 2.2-1.4 3.6-.4 1.3-.6 2.4-.6 3.3-.1.9.2 1.4.8 1.4zm12.8-21.9c-1.4 0-2.8.3-4.2.9-1.4.6-2.7 1.3-3.8 2.1-1.1.8-2.1 1.6-2.8 2.4-.7.8-1.1 1.5-1.1 2s.2 1 .7 1.4c.5.4 1.1.7 2 1 .8.3 1.8.5 3 .6 1.1.2 2.4.3 3.7.3 1.1-1.8 2-3.6 2.7-5.2.7-1.7 1-3 1-3.9.1-1.1-.3-1.6-1.2-1.6z"/>
    <path d="M320.9 61.2c.1-.1.3-.2.5-.2.3 0 .7.2 1 .6.3.4.5.9.5 1.3 0 .3-.1.5-.3.7-.3.3-.8.8-1.7 1.6-.8.8-1.8 1.7-3 2.7-1.2 1-2.4 2.1-3.7 3.2-1.3 1.1-2.7 2.2-4 3.1-1.3.9-2.6 1.7-3.7 2.3-1.2.6-2.1.9-2.9.9-1.4 0-2.7-.6-3.7-1.7s-1.5-2.4-1.5-4c0-.7.1-1.5.4-2.6.2-1.1.6-2.2 1-3.4.4-1.2.9-2.5 1.3-3.7.5-1.2.9-2.4 1.4-3.5-1.4 1-3 2.2-4.6 3.6s-3.1 2.9-4.5 4.3c-1.4 1.5-2.5 2.8-3.4 4.1-.9 1.3-1.4 2.2-1.4 2.8 0 .8-.5 1.2-1.4 1.2-.4 0-.9-.1-1.4-.4-.5-.2-1-.6-1.5-1-.5-.5-.8-1-1.2-1.7-.3-.7-.5-1.4-.5-2.3 0-.5.1-1.2.4-2.2s.7-2.1 1.1-3.3c.5-1.2 1-2.6 1.6-3.9.6-1.4 1.2-2.7 1.8-3.9-1.2 1.1-2.4 2.3-3.7 3.7s-2.6 2.8-3.9 4.3c-1.3 1.5-2.5 3-3.7 4.5-1.2 1.5-2.2 2.9-3.1 4.2-.9 1.3-1.6 2.4-2.2 3.4s-.8 1.7-.8 2.1c0 1-.4 1.5-1.3 1.5-.4 0-.9-.1-1.4-.4-.5-.3-1-.7-1.4-1.2-.5-.5-.8-1.2-1.2-1.9-.3-.7-.5-1.6-.5-2.5 0-.4.2-1.2.6-2.4.4-1.2.9-2.5 1.5-3.9s1.4-3 2.2-4.6c.8-1.6 1.7-3 2.5-4.3s1.7-2.4 2.6-3.2c.8-.8 1.6-1.3 2.3-1.3.5 0 1 .1 1.4.4s.9.5 1.3.9c.4.3.7.7 1 1.1.2.4.4.7.4.9 0 .1 0 .2-.1.3-1.1 1.2-2.3 2.6-3.5 4.2-1.2 1.7-2.3 3.5-3.3 5.4 1.7-2.2 3.6-4.3 5.7-6.4 2.1-2.1 4-4.1 5.9-5.8 1.9-1.7 3.5-3.1 5-4.2 1.4-1.1 2.4-1.6 2.9-1.6s1 .1 1.5.4 1 .5 1.4.9c.4.3.7.7 1 1.1.2.4.4.7.4.9 0 .1 0 .2-.1.3-.4.4-.8 1-1.4 1.8-.5.8-1.1 1.8-1.7 2.9-.6 1.1-1.2 2.3-1.7 3.6s-1.1 2.7-1.6 4c1.3-1.4 2.8-2.9 4.4-4.3 1.6-1.4 3.2-2.7 4.7-3.8 1.5-1.1 2.9-2 4-2.7 1.2-.7 2-1 2.6-1 .5 0 1 .1 1.5.4s1 .5 1.4.9c.4.3.7.7 1 1.1.2.4.4.7.4.9 0 .1 0 .2-.1.3-.5.5-1 1.4-1.6 2.6-.6 1.3-1.2 2.7-1.7 4.2-.6 1.5-1 3-1.4 4.5s-.5 2.7-.5 3.5c0 .9.2 1.4.6 1.4.3 0 .9-.2 1.7-.7s1.7-1.1 2.7-1.9c1-.8 2.1-1.6 3.2-2.6 1.1-.9 2.2-1.8 3.2-2.7s1.9-1.7 2.7-2.4c.7-.5 1.3-1 1.6-1.4z"/>
    <path d="M348.6 60.9c.1-.1.3-.2.5-.2.4 0 .7.2 1 .6.3.4.4.8.4 1.3 0 .3-.1.6-.3.8-.4.4-1.2 1.1-2.2 2.1-1 1-2.2 2.1-3.6 3.3s-3 2.5-4.7 3.7c-1.7 1.3-3.5 2.4-5.4 3.5-1.9 1.1-3.8 2-5.8 2.6-2 .7-3.9 1-5.9 1-1 0-1.9-.2-2.8-.6-.8-.4-1.6-.9-2.2-1.5-.6-.6-1.1-1.4-1.4-2.2s-.5-1.7-.5-2.6c0-1.2.3-2.6 1-4.2.6-1.7 1.5-3.4 2.6-5.2 1.1-1.8 2.3-3.6 3.6-5.4 1.3-1.8 2.7-3.4 4.1-4.8 1.4-1.4 2.7-2.6 4.1-3.5 1.3-.9 2.5-1.3 3.4-1.3.9 0 1.8.2 2.5.5.8.3 1.4.8 1.9 1.3s.9 1.1 1.3 1.7c.3.6.5 1.1.5 1.6 0 1.2-.5 2.8-1.4 4.7-.9 1.9-2.2 3.8-3.8 5.7-1.6 1.9-3.4 3.6-5.5 5-2.1 1.5-4.3 2.4-6.7 2.7v.6c0 1.8.9 2.7 2.8 2.7 1.2 0 2.6-.3 4.1-.9 1.5-.6 3-1.3 4.6-2.2s3.1-1.9 4.6-3 2.9-2.2 4.1-3.2c1.2-1 2.3-2 3.2-2.8.8-.8 1.5-1.4 1.9-1.8zm-12-9.6c-.4 0-1.1.5-2.1 1.5s-2.1 2.2-3.2 3.7c-1.2 1.5-2.4 3.2-3.6 5-1.2 1.8-2.2 3.6-3 5.3 1-.1 1.9-.6 2.9-1.3 1-.7 1.9-1.6 2.8-2.6.9-1 1.7-2.1 2.5-3.2.8-1.2 1.4-2.3 2-3.3s1-2 1.3-2.9c.3-.8.5-1.5.5-1.8.1-.3.1-.4-.1-.4z"/>
</svg>
