<svg xmlns="http://www.w3.org/2000/svg" viewBox="0 0 292.604 45">
    <path d="M58.608.9c-.168-.145-.252-.288-.252-.433 0-.144.096-.258.288-.342a1.82 1.82 0 01.72-.125c.312 0 .66.061 1.044.18.383.121.744.312 1.08.576.336.265.618.612.846 1.044.228.433.342.96.342 1.584 0 .504-.21 1.386-.63 2.646-.42 1.26-.996 2.748-1.728 4.464-.732 1.716-1.602 3.594-2.61 5.634s-2.088 4.08-3.24 6.12a99.75 99.75 0 01-3.618 5.922c-1.26 1.908-2.52 3.6-3.78 5.076-1.26 1.476-2.496 2.658-3.708 3.546s-2.346 1.332-3.402 1.332c-.672 0-1.344-.126-2.016-.378s-1.272-.594-1.8-1.026a5.207 5.207 0 01-1.278-1.529 3.926 3.926 0 01-.486-1.927c0-.792.234-1.974.702-3.546a69.828 69.828 0 011.818-5.237 147.93 147.93 0 012.466-5.958c.9-2.053 1.77-3.966 2.61-5.742a720.128 720.128 0 00-4.806 5.184 1117.76 1117.76 0 00-5.472 5.994 1587.16 1587.16 0 00-5.472 6.066 222.047 222.047 0 00-4.752 5.453c-1.38 1.645-2.497 3.024-3.348 4.141-.852 1.116-1.278 1.817-1.278 2.105 0 .408-.18.612-.54.612-.216 0-.474-.09-.774-.27a3.592 3.592 0 01-.846-.721c-.264-.3-.492-.66-.684-1.08a3.208 3.208 0 01-.288-1.35c0-.384.264-1.104.792-2.16s1.224-2.334 2.088-3.834a182.508 182.508 0 012.97-4.95 2527.858 2527.858 0 006.804-11.052 194.202 194.202 0 002.97-5.004 70.278 70.278 0 002.088-3.888c.527-1.08.792-1.824.792-2.232 0-.12-.036-.21-.108-.27-.072-.06-.24-.091-.504-.091-.504 0-1.308.103-2.412.307s-2.388.48-3.852.828-3.048.756-4.752 1.224-3.408.972-5.112 1.512c-1.705.54-3.342 1.099-4.914 1.675a53.623 53.623 0 00-4.176 1.71c-1.212.563-2.178 1.11-2.898 1.638-.72.528-1.08 1.008-1.08 1.439 0 .505-.18.757-.54.757-.168 0-.36-.072-.576-.217a2.732 2.732 0 01-.612-.575 3.31 3.31 0 01-.486-.864A2.83 2.83 0 010 13.824c0-.552.372-1.128 1.116-1.729.744-.6 1.746-1.193 3.006-1.781A48.17 48.17 0 018.46 8.568a98.812 98.812 0 015.094-1.639 128.098 128.098 0 0110.242-2.538 85.036 85.036 0 014.068-.737c1.176-.181 2.04-.271 2.592-.271s1.08.12 1.584.36.948.546 1.332.918c.384.372.689.798.918 1.278.228.479.342.948.342 1.403 0 .408-.246 1.134-.738 2.179a70.271 70.271 0 01-1.944 3.762 214.378 214.378 0 01-2.754 4.842 1440.33 1440.33 0 01-3.186 5.418 555.533 555.533 0 00-3.222 5.526 169.366 169.366 0 00-2.844 5.13 317.66 317.66 0 014.383-5.076 466.418 466.418 0 015.122-5.724 860.844 860.844 0 015.285-5.761c1.755-1.896 3.377-3.642 4.865-5.237a423.571 423.571 0 013.872-4.104 180.013 180.013 0 012.322-2.394c.192-.192.444-.288.756-.288.24 0 .492.066.756.198a3.33 3.33 0 011.26 1.097c.144.216.216.42.216.612 0 .168-.048.3-.144.396-.192.192-.486.63-.882 1.314a53.482 53.482 0 00-1.386 2.592 147.778 147.778 0 00-3.546 7.56c-.612 1.404-1.2 2.826-1.764 4.267a77.044 77.044 0 00-1.494 4.14 46.729 46.729 0 00-1.044 3.636c-.264 1.104-.396 2.028-.396 2.772 0 .552.084.99.251 1.313.167.326.443.488.826.488.599 0 1.347-.384 2.246-1.152.898-.768 1.869-1.806 2.911-3.113a63.213 63.213 0 003.252-4.519 98.047 98.047 0 003.306-5.382 131.492 131.492 0 003.09-5.724 90.674 90.674 0 002.587-5.509c.743-1.739 1.33-3.329 1.761-4.77s.647-2.604.647-3.492c.002-.694-.13-1.175-.394-1.439zm25.92 25.704a.348.348 0 01.252-.107c.192 0 .36.103.504.306.144.204.216.414.216.63a.536.536 0 01-.144.396c-.144.144-.42.414-.828.81-.408.396-.9.853-1.476 1.368-.576.517-1.2 1.057-1.872 1.62-.672.564-1.338 1.08-1.998 1.548s-1.285.858-1.874 1.17c-.589.312-1.077.468-1.465.468-.703 0-1.316-.275-1.837-.827a2.785 2.785 0 01-.782-1.98c0-.408.14-.972.418-1.692.279-.72.625-1.499 1.037-2.34a50.376 50.376 0 01-2.001 1.891 23.326 23.326 0 01-2.019 1.62c-.661.468-1.297.84-1.911 1.115-.613.276-1.172.414-1.676.414-.529 0-.974-.09-1.334-.27a2.333 2.333 0 01-.865-.72c-.216-.3-.373-.654-.469-1.062s-.144-.84-.144-1.296c0-.504.048-1.02.144-1.548a14.01 14.01 0 01.36-1.513 40.23 40.23 0 00-2.682 2.286c-.948.877-1.83 1.746-2.646 2.61s-1.488 1.656-2.016 2.376-.792 1.236-.792 1.548c0 .385-.144.576-.432.576-.216 0-.468-.102-.756-.306a3.859 3.859 0 01-.828-.828c-.265-.348-.486-.75-.666-1.206s-.27-.924-.27-1.404c0-.384.156-.978.468-1.782.312-.804.732-1.728 1.26-2.771a87.606 87.606 0 011.836-3.42c.696-1.236 1.422-2.49 2.178-3.763a206.736 206.736 0 012.268-3.726c.756-1.212 1.476-2.322 2.16-3.33s1.296-1.878 1.836-2.61c.54-.731.954-1.241 1.242-1.529.216-.218.48-.326.792-.326.24 0 .48.061.72.18.24.121.462.265.666.433.204.168.366.348.486.54.12.192.18.348.18.468 0 .072-.012.12-.036.144a22.57 22.57 0 00-1.962 2.286 54.81 54.81 0 00-2.106 2.988 75.593 75.593 0 00-2.142 3.456 92.32 92.32 0 00-2.034 3.672 115.707 115.707 0 00-1.836 3.654 62.882 62.882 0 00-1.512 3.384c.72-.792 1.524-1.59 2.412-2.395a52.685 52.685 0 012.556-2.178 23.603 23.603 0 012.214-1.584c.66-.407 1.122-.612 1.386-.612.072-.023.18-.035.324-.035.264 0 .54.06.828.18s.545.27.774.45c.228.18.414.359.558.54.144.18.216.33.216.449 0-.071-.084.079-.252.45-.168.373-.348.828-.54 1.368-.192.54-.373 1.11-.54 1.71-.168.601-.252 1.104-.252 1.512 0 .457.108.685.325.685.289 0 .717-.186 1.283-.559a20.382 20.382 0 001.88-1.422 41.337 41.337 0 002.132-1.926c.734-.707 1.434-1.392 2.096-2.052s1.258-1.26 1.787-1.8.913-.942 1.153-1.206c.264-.168.444-.3.54-.396.095-.096.275-.144.54-.144s.534.06.81.18.528.271.756.45c.228.18.414.36.558.54s.216.33.216.45c0 .048-.013.084-.036.107-.168.168-.414.48-.738.937-.324.456-.679.989-1.062 1.602-.384.612-.774 1.26-1.17 1.944a42.626 42.626 0 00-1.08 1.979 22.245 22.245 0 00-.792 1.71c-.205.504-.306.877-.306 1.116 0 .192.072.288.216.288.168 0 .45-.12.846-.36.396-.239.846-.552 1.35-.936s1.038-.81 1.602-1.278a73.703 73.703 0 001.602-1.368c.504-.443.954-.846 1.35-1.205.396-.36.677-.624.846-.792zm-.792-15.3c.312-.336.684-.504 1.116-.504.36 0 .714.108 1.062.324.348.216.666.48.954.792.288.312.516.636.684.972.167.337.252.625.252.864 0 .336-.18.504-.54.504-.264 0-.606.162-1.026.486-.42.324-.828.702-1.224 1.134s-.732.864-1.008 1.296c-.276.432-.414.756-.414.972 0 .288-.192.433-.576.433-.336 0-.702-.12-1.098-.36-.396-.239-.594-.552-.594-.936s.078-.864.234-1.44c.156-.576.348-1.157.576-1.746.228-.588.486-1.134.774-1.638s.563-.889.828-1.153z"/>
    <path d="M115.704 26.604a.348.348 0 01.252-.107c.192 0 .36.103.504.306.144.204.216.414.216.63a.532.532 0 01-.144.396c-.144.144-.42.414-.828.81-.409.396-.9.853-1.476 1.368a74.542 74.542 0 01-1.872 1.62 31.07 31.07 0 01-1.998 1.548 18.36 18.36 0 01-1.854 1.17c-.576.312-1.056.468-1.44.468-.504 0-1.026-.138-1.566-.413a9 9 0 01-1.566-1.026c-.504-.408-.96-.846-1.368-1.314a9.117 9.117 0 01-.936-1.241 19.432 19.432 0 00-1.512 2.573c-.384.805-.576 1.482-.576 2.034 0 .385-.144.576-.432.576-.216 0-.468-.102-.756-.306s-.564-.48-.828-.828-.486-.75-.666-1.206-.27-.924-.27-1.404c0-.504.264-1.355.792-2.556.528-1.2 1.212-2.568 2.052-4.104a167.61 167.61 0 012.772-4.859 131.56 131.56 0 012.988-4.824 271.137 271.137 0 00-3.312 3.294l-3.582 3.618c-1.212 1.224-2.412 2.448-3.6 3.672s-2.298 2.389-3.33 3.492a12.32 12.32 0 011.584 1.584c.432.528.648 1.056.648 1.584 0 .696-.3 1.392-.9 2.088s-1.314 1.325-2.142 1.89a14.897 14.897 0 01-2.502 1.386c-.841.36-1.5.54-1.98.54a2.269 2.269 0 01-1.566-.594c-.444-.396-.666-.87-.666-1.422 0-.408.42-1.157 1.26-2.25.84-1.092 1.956-2.394 3.348-3.906-.48-.384-.967-.792-1.458-1.224-.492-.432-.949-.87-1.368-1.314a6.986 6.986 0 01-1.026-1.367c-.265-.469-.396-.918-.396-1.351 0-.432.138-.918.414-1.458a9.57 9.57 0 011.098-1.656c.456-.563.972-1.115 1.548-1.655a18.149 18.149 0 011.728-1.44 11.16 11.16 0 011.674-1.025c.54-.269 1.013-.401 1.421-.401.432 0 .84.084 1.224.252.384.168.714.372.99.612s.498.51.666.81c.168.301.252.57.252.811 0 .408-.162.93-.486 1.565a14.082 14.082 0 01-1.134 1.854 10.98 10.98 0 01-1.35 1.565c-.468.444-.846.666-1.134.666-.264 0-.504-.054-.72-.162a2.335 2.335 0 01-.558-.378 1.964 1.964 0 01-.378-.468.954.954 0 01-.144-.468c0-.216.12-.324.36-.324.288 0 .636-.203 1.044-.612.408-.407.81-.869 1.206-1.386a12.72 12.72 0 001.008-1.512c.275-.492.414-.834.414-1.026 0-.072-.024-.107-.072-.107-.144 0-.39.114-.738.342-.348.229-.732.528-1.152.899a30.5 30.5 0 00-1.332 1.261c-.468.468-.888.93-1.26 1.386-.373.456-.684.895-.936 1.313-.252.421-.378.763-.378 1.026 0 .408.275.876.828 1.404.552.528 1.188 1.08 1.908 1.656a203.303 203.303 0 013.312-3.456 504.086 504.086 0 017.2-7.2l3.42-3.349a2658.64 2658.64 0 012.988-2.916c.912-.887 1.692-1.655 2.34-2.304.216-.288.401-.486.558-.594.156-.106.354-.16.594-.16s.48.061.72.18c.239.121.461.265.666.433.204.168.365.348.486.54.12.192.18.348.18.468 0 .072-.013.12-.036.144-.769.769-1.602 1.771-2.502 3.006-.9 1.237-1.8 2.593-2.7 4.068a104.6 104.6 0 00-2.646 4.608 88.519 88.519 0 00-2.34 4.626 30.813 30.813 0 012.304-2.719c.792-.827 1.542-1.535 2.25-2.123s1.332-1.05 1.872-1.387c.54-.336.954-.504 1.242-.504.167 0 .39.078.666.234.275.156.545.359.81.611.264.253.492.547.684.883.191.336.288.684.288 1.044 0 .48-.228 1.056-.684 1.728a15.102 15.102 0 01-1.728 2.07 17.24 17.24 0 01-2.34 1.979c-.864.612-1.704 1.099-2.52 1.458a8.426 8.426 0 001.422 1.549c.516.432.99.647 1.422.647.167 0 .45-.12.846-.36.396-.239.84-.552 1.332-.936a71.392 71.392 0 003.186-2.646c.504-.443.954-.846 1.35-1.205.396-.36.678-.624.847-.792zm-25.093 6.552c0-.168-.09-.36-.27-.576a6.086 6.086 0 00-.738-.72 100.077 100.077 0 00-2.97 3.384c-.756.912-1.134 1.499-1.134 1.764 0 .072.036.108.108.108.192 0 .563-.156 1.116-.468a15.901 15.901 0 001.692-1.116c.576-.433 1.085-.87 1.53-1.314.444-.444.666-.798.666-1.062zm18.828-10.728c-.696.504-1.518 1.219-2.466 2.143a43.527 43.527 0 00-2.826 3.042c0 .168.012.3.036.396a12.33 12.33 0 001.548-1.062c.528-.42 1.032-.87 1.512-1.351.479-.479.912-.989 1.296-1.529a7.618 7.618 0 00.9-1.639z"/>
    <path d="M124.38 26.568c.072-.072.144-.108.216-.108.192 0 .366.114.522.342.156.229.234.45.234.666a.485.485 0 01-.144.36c-.144.12-.42.384-.828.792-.409.408-.9.87-1.476 1.386a58.354 58.354 0 01-1.89 1.62c-.684.564-1.356 1.08-2.016 1.548s-1.278.858-1.855 1.17c-.577.312-1.059.468-1.447.468-.703 0-1.316-.275-1.837-.827s-.782-1.212-.782-1.98c0-.36.103-.834.309-1.422.206-.588.473-1.229.801-1.926.327-.696.697-1.416 1.109-2.16.413-.744.818-1.44 1.216-2.088a36.43 36.43 0 011.137-1.746c.36-.516.66-.894.9-1.134.216-.217.492-.324.828-.324.264 0 .54.061.828.18.288.12.546.271.774.45s.414.36.558.54.216.33.216.45c0 .072-.012.12-.036.144-.168.168-.414.48-.738.937-.324.456-.678.989-1.062 1.602s-.774 1.26-1.17 1.944a42.626 42.626 0 00-1.08 1.979 22.245 22.245 0 00-.792 1.71c-.204.504-.306.877-.306 1.116 0 .192.072.288.216.288.167 0 .45-.126.846-.378s.846-.57 1.35-.954c.504-.384 1.038-.81 1.602-1.278.564-.468 1.098-.923 1.602-1.367s.954-.847 1.35-1.206c.395-.362.676-.626.845-.794zm-.828-15.264c.336-.336.708-.504 1.116-.504.36 0 .72.108 1.08.324.36.216.678.475.954.774.276.3.504.618.684.953.18.337.27.625.27.864 0 .337-.18.504-.54.504-.265 0-.606.162-1.026.486-.42.324-.828.708-1.224 1.152s-.732.882-1.008 1.313c-.276.432-.414.756-.414.972 0 .288-.192.433-.576.433-.336 0-.702-.12-1.098-.36-.396-.239-.594-.552-.594-.936 0-.408.078-.9.234-1.477.156-.576.348-1.157.576-1.746.228-.588.479-1.127.756-1.619.275-.491.545-.869.81-1.133z"/>
    <path d="M138.348 26.604a.348.348 0 01.252-.107c.192 0 .36.103.504.306.144.204.216.414.216.63a.532.532 0 01-.144.396c-.216.216-.576.57-1.08 1.062-.504.492-1.11 1.044-1.818 1.656s-1.494 1.236-2.358 1.872a27.742 27.742 0 01-2.718 1.764c-.949.54-1.92.979-2.916 1.314a9.174 9.174 0 01-2.934.503c-.504 0-.966-.096-1.386-.288a3.463 3.463 0 01-1.08-.756c-.301-.312-.54-.678-.72-1.098s-.27-.858-.27-1.314c0-.576.162-1.278.486-2.105.324-.828.756-1.692 1.296-2.593.54-.899 1.146-1.8 1.818-2.699.671-.9 1.355-1.704 2.052-2.412.696-.708 1.374-1.284 2.034-1.729.66-.443 1.229-.666 1.71-.666.456 0 .876.085 1.26.252.384.168.708.378.972.63s.474.528.63.828c.156.301.234.57.234.811 0 .624-.234 1.41-.702 2.357-.468.948-1.098 1.891-1.89 2.826a14.697 14.697 0 01-2.772 2.521c-1.056.744-2.172 1.2-3.348 1.367a.818.818 0 01-.018.162.77.77 0 00-.018.162c0 .889.468 1.332 1.404 1.332.624 0 1.314-.144 2.07-.432.756-.288 1.518-.66 2.286-1.116s1.53-.96 2.286-1.512a42.945 42.945 0 004.662-3.924zm-5.976-4.788c-.192 0-.535.246-1.026.737a20.286 20.286 0 00-1.62 1.872 38.823 38.823 0 00-1.782 2.502c-.6.913-1.092 1.8-1.476 2.664.48-.072.966-.288 1.458-.647.492-.36.96-.786 1.404-1.278.444-.491.858-1.026 1.242-1.602.384-.576.72-1.135 1.008-1.675s.51-1.02.666-1.439c.156-.42.234-.726.234-.918-.001-.144-.037-.216-.108-.216z"/>
    <path d="M152.855 26.568c.383 0 .684.102.9.306.216.204.324.402.324.594 0 .24-.132.36-.396.36-.48 0-1.074.09-1.782.27a22.34 22.34 0 00-2.304.738 37.48 37.48 0 00-2.592 1.098c-.9.421-1.782.858-2.646 1.314.312.384.563.769.756 1.152.192.384.288.756.288 1.115 0 .696-.265 1.339-.792 1.927a8.056 8.056 0 01-1.872 1.529c-.72.433-1.46.774-2.22 1.026s-1.377.378-1.851.378a2.34 2.34 0 01-1.023-.252 4.243 4.243 0 01-.954-.63c-.288-.252-.522-.54-.702-.864s-.27-.642-.27-.954c0-.359.138-.737.414-1.134.275-.396.648-.792 1.116-1.188a16.122 16.122 0 011.647-1.205c.63-.408 1.301-.805 2.013-1.188a42.026 42.026 0 01-.871-1.062 13.11 13.11 0 01-.8-1.116c-.238-.372-.433-.732-.587-1.08s-.231-.678-.231-.99c0-.36.136-.786.409-1.278a9.4 9.4 0 011.067-1.512c.439-.516.938-1.025 1.5-1.53.56-.504 1.129-.953 1.705-1.35.576-.396 1.14-.72 1.692-.972s1.032-.378 1.44-.378c.456 0 .875.084 1.26.252.384.168.72.372 1.008.611.288.24.51.511.666.811s.234.57.234.81c0 .504-.103 1.057-.306 1.656a8.998 8.998 0 01-.774 1.692 5.723 5.723 0 01-1.062 1.332c-.396.359-.787.54-1.17.54-.265 0-.504-.055-.72-.162a2.396 2.396 0 01-.558-.378 1.968 1.968 0 01-.378-.469.948.948 0 01-.144-.468c0-.216.12-.324.36-.324.264 0 .563-.174.9-.521.335-.348.653-.756.954-1.225.3-.468.552-.923.756-1.367.204-.444.306-.762.306-.954 0-.096-.036-.145-.108-.145-.48 0-1.062.252-1.746.756-.684.504-1.35 1.093-1.998 1.765s-1.201 1.338-1.656 1.998c-.456.66-.684 1.146-.684 1.458 0 .288.18.647.54 1.08.36.432.78.899 1.26 1.403a69.941 69.941 0 013.06-1.296 52.32 52.32 0 012.862-1.044c.876-.288 1.65-.516 2.322-.684s1.15-.251 1.438-.251zm-10.368 6.552c0-.096-.108-.312-.324-.648-1.272.744-2.328 1.435-3.168 2.07-.84.636-1.26 1.11-1.26 1.422 0 .048.048.072.144.072.192 0 .54-.102 1.044-.306s1.02-.456 1.548-.757c.528-.3.996-.617 1.404-.954.408-.334.612-.634.612-.899zm37.8-8.82c.672 0 1.236.108 1.692.324.456.216.828.475 1.116.774s.492.618.612.953c.12.337.18.625.18.864 0 .337-.084.504-.252.504-.121 0-.366-.126-.738-.378s-.822-.378-1.35-.378c-.553 0-1.183.097-1.89.288-.708.192-1.471.45-2.286.774-.816.323-1.662.714-2.538 1.17a85.05 85.05 0 00-2.646 1.439c.432.841.984 1.5 1.656 1.98.671.48 1.488.72 2.448.72.456 0 .846-.084 1.17-.252.324-.168.6-.348.828-.54a6.38 6.38 0 00.576-.54c.156-.168.306-.252.45-.252.192 0 .288.168.288.504 0 .288-.084.648-.252 1.08a3.876 3.876 0 01-.81 1.242c-.372.396-.846.732-1.422 1.008s-1.272.414-2.088.414c-1.224 0-2.256-.365-3.096-1.098-.84-.732-1.5-1.71-1.98-2.935a95.218 95.218 0 00-3.438 2.232 127.488 127.488 0 00-2.952 2.069 67.126 67.126 0 00-2.178 1.639c-.576.455-.948.768-1.116.936-.192.192-.348.288-.468.288-.121 0-.198-.054-.234-.162a1.188 1.188 0 01-.054-.378c0-.48.12-.888.36-1.224.24-.337.648-.744 1.224-1.225a1.993 1.993 0 01-.612-.575c-.168-.24-.252-.54-.252-.9 0-.815.239-1.661.72-2.538.48-.876 1.128-1.775 1.944-2.7a34.127 34.127 0 012.79-2.79c1.044-.936 2.13-1.872 3.258-2.808.096-1.8.36-3.582.792-5.346.432-1.765 1.008-3.349 1.728-4.752.72-1.404 1.566-2.544 2.538-3.42.972-.873 2.046-1.311 3.222-1.311a3.6 3.6 0 011.53.342c.491.229.918.54 1.278.937.36.396.648.852.864 1.368a4.11 4.11 0 01.324 1.602c0 1.152-.3 2.25-.9 3.294-.6 1.044-1.386 2.07-2.358 3.078-.972 1.008-2.064 2.004-3.276 2.988s-2.43 1.968-3.654 2.951c.023 1.009.156 1.993.396 2.952a85.517 85.517 0 012.628-1.638c.864-.516 1.686-.966 2.466-1.35s1.488-.685 2.124-.9 1.182-.324 1.638-.324zm-16.992 10.044c.84-.647 1.776-1.355 2.808-2.124a96.099 96.099 0 013.24-2.304 13.435 13.435 0 01-.234-1.278 15.702 15.702 0 01-.126-1.35 34.895 34.895 0 00-3.492 3.402c-1.032 1.164-1.764 2.382-2.196 3.654zm14.436-24.156c-.84 0-1.626.342-2.358 1.025-.732.685-1.386 1.578-1.962 2.683-.576 1.104-1.062 2.37-1.458 3.798s-.666 2.874-.81 4.338c1.08-.888 2.112-1.77 3.096-2.646a38.754 38.754 0 002.628-2.556c.768-.828 1.38-1.62 1.836-2.376.456-.756.684-1.47.684-2.143 0-.575-.126-1.073-.378-1.493s-.678-.63-1.278-.63zm44.603 13.32c.407 0 .731.133.972.396.239.264.36.492.36.684 0 .216-.108.324-.324.324-1.08 0-2.521.294-4.32.882a65.783 65.783 0 00-5.832 2.25c.12.312.18.612.18.9 0 .792-.246 1.644-.738 2.556-.492.912-1.128 1.824-1.908 2.736a23.908 23.908 0 01-2.646 2.628 30.72 30.72 0 01-2.97 2.25c-.997.659-1.957 1.182-2.88 1.565s-1.71.576-2.358.576c-.432 0-.888-.09-1.368-.27a4.93 4.93 0 01-1.314-.738c-.396-.312-.72-.672-.972-1.08s-.378-.853-.378-1.332c0-.672.383-1.422 1.152-2.25.768-.828 1.782-1.674 3.042-2.538s2.7-1.733 4.32-2.609a83.238 83.238 0 014.95-2.467c-.672-.264-1.548-.516-2.628-.756-1.08-.239-2.227-.51-3.438-.81a76.31 76.31 0 01-3.672-1.008 19.905 19.905 0 01-3.33-1.314c-.984-.504-1.789-1.092-2.412-1.764-.625-.672-.936-1.452-.936-2.34 0-.937.3-1.938.9-3.007.6-1.067 1.404-2.153 2.412-3.258 1.008-1.104 2.19-2.214 3.546-3.33s2.784-2.178 4.284-3.186 3.042-1.95 4.626-2.826 3.108-1.638 4.572-2.286c1.464-.647 2.832-1.157 4.104-1.53C218.602.187 219.694 0 220.606 0c.552 0 1.122.096 1.71.288s1.116.456 1.584.792c.469.336.852.75 1.152 1.242.3.492.45 1.025.45 1.602 0 .744-.276 1.698-.828 2.862-.553 1.164-1.272 2.406-2.16 3.726a49.682 49.682 0 01-3.006 3.996 37.958 37.958 0 01-3.402 3.618c-1.152 1.068-2.256 1.938-3.312 2.61-1.057.672-1.968 1.008-2.736 1.008-.432 0-.828-.067-1.188-.201a3.793 3.793 0 01-.936-.494 2.998 2.998 0 01-.63-.604c-.156-.207-.234-.396-.234-.567 0-.268.192-.402.576-.402.744 0 1.644-.335 2.7-1.005 1.056-.671 2.166-1.533 3.33-2.587a43.977 43.977 0 003.456-3.521 51.613 51.613 0 003.078-3.826c.911-1.258 1.649-2.419 2.214-3.485.563-1.064.846-1.897.846-2.496s-.288-.898-.864-.898c-.72 0-1.644.197-2.771.594-1.129.396-2.371.931-3.726 1.602-1.356.673-2.784 1.453-4.284 2.341s-2.982 1.83-4.446 2.825c-1.464.997-2.862 2.017-4.194 3.061s-2.497 2.052-3.492 3.023c-.996.973-1.794 1.879-2.394 2.719-.6.84-.9 1.561-.9 2.16 0 .504.3.941.9 1.313.6.372 1.38.72 2.34 1.044s2.034.643 3.222.954c1.188.312 2.37.636 3.546.972 1.176.337 2.28.702 3.312 1.099 1.032.396 1.884.858 2.556 1.386a76.401 76.401 0 013.294-1.314 69.233 69.233 0 012.952-1.025c.9-.288 1.692-.51 2.376-.666.683-.16 1.229-.238 1.637-.238zm-24.48 13.896c0 .359.204.54.612.54.408 0 .972-.162 1.692-.486s1.506-.738 2.358-1.242a35.456 35.456 0 002.61-1.71 36.222 36.222 0 002.466-1.926c.756-.648 1.398-1.26 1.926-1.836s.864-1.067 1.008-1.477a117.016 117.016 0 00-4.698 2.376 64.774 64.774 0 00-4.05 2.341c-1.176.744-2.124 1.422-2.844 2.033-.72.613-1.08 1.075-1.08 1.387z"/>
    <path d="M235.726 27.288c.239 0 .474.126.702.378.228.252.342.475.342.666 0 .049-.211.114-.63.198-.421.084-.979.186-1.675.306s-1.488.276-2.376.468c-.888.192-1.8.433-2.735.721-.48.624-.979 1.218-1.494 1.781a13.3 13.3 0 01-1.602 1.494c-.553.433-1.111.774-1.675 1.026s-1.134.378-1.71.378c-.624 0-1.104-.126-1.439-.378-.337-.252-.504-.474-.504-.666 0-.408.119-.798.359-1.17s.576-.721 1.008-1.044c.433-.324.937-.636 1.513-.937a19.58 19.58 0 011.872-.846 45.364 45.364 0 003.294-4.662c.443-.731.798-1.38 1.062-1.944.264-.563.396-.966.396-1.206 0-.167-.061-.252-.181-.252-.24 0-.636.204-1.188.612-.553.408-1.188.948-1.908 1.62s-1.488 1.435-2.304 2.286c-.816.852-1.62 1.723-2.412 2.609a76.983 76.983 0 00-2.214 2.593 40.766 40.766 0 00-1.711 2.231c-.552 1.129-1.056 2.232-1.511 3.312s-.852 2.094-1.188 3.042a23.927 23.927 0 00-.774 2.592c-.18.779-.27 1.422-.27 1.926 0 .384-.156.576-.468.576-.216 0-.468-.09-.756-.27-.288-.181-.558-.421-.81-.721s-.468-.654-.648-1.062a3.266 3.266 0 01-.27-1.332c0-.528.216-1.339.648-2.431s.984-2.321 1.656-3.689 1.428-2.802 2.268-4.302c.839-1.5 1.668-2.91 2.483-4.23a100.66 100.66 0 012.25-3.492c.685-1.008 1.23-1.715 1.639-2.124.216-.216.479-.323.792-.323.239 0 .479.06.72.18.239.12.462.265.666.432.203.168.365.342.486.522.119.18.18.33.18.45 0 .071-.078.21-.234.414s-.342.426-.558.666l-.648.72c-.216.24-.384.432-.504.576a141.6 141.6 0 012.179-1.998 36.512 36.512 0 011.962-1.656c.6-.468 1.128-.84 1.584-1.116.455-.275.792-.414 1.008-.414.336 0 .653.078.954.234.3.156.569.348.81.576.24.228.426.485.559.773.131.288.197.576.197.864 0 .576-.21 1.41-.63 2.502-.42 1.093-.99 2.238-1.71 3.438 1.2-.288 2.273-.51 3.223-.666.947-.153 1.588-.231 1.925-.231z"/>
    <path d="M244.473 26.568c.072-.072.145-.108.216-.108.192 0 .366.114.522.342.156.229.234.45.234.666a.486.486 0 01-.145.36c-.144.12-.42.384-.828.792s-.899.87-1.476 1.386a58.354 58.354 0 01-1.89 1.62c-.685.564-1.356 1.08-2.017 1.548s-1.278.858-1.855 1.17c-.577.312-1.06.468-1.447.468-.703 0-1.315-.275-1.837-.827s-.782-1.212-.782-1.98c0-.36.103-.834.309-1.422s.474-1.229.801-1.926.697-1.416 1.109-2.16.817-1.44 1.216-2.088a35.65 35.65 0 011.138-1.746c.359-.516.659-.894.899-1.134.217-.217.492-.324.828-.324.264 0 .54.061.828.18a3.44 3.44 0 011.332.99c.144.18.216.33.216.45 0 .072-.012.12-.036.144-.168.168-.414.48-.737.937-.324.456-.679.989-1.062 1.602s-.773 1.26-1.17 1.944a42.626 42.626 0 00-1.08 1.979c-.324.637-.588 1.206-.792 1.71s-.306.877-.306 1.116c0 .192.072.288.216.288.168 0 .45-.126.846-.378.396-.252.847-.57 1.351-.954s1.037-.81 1.602-1.278a76.334 76.334 0 001.603-1.367c.504-.444.953-.847 1.35-1.206.394-.362.676-.626.844-.794zm-.828-15.264c.336-.336.708-.504 1.116-.504.36 0 .72.108 1.08.324s.678.475.954.774c.275.3.504.618.684.953.181.337.271.625.271.864 0 .337-.18.504-.54.504-.265 0-.606.162-1.026.486s-.828.708-1.224 1.152c-.396.444-.732.882-1.008 1.313-.276.432-.414.756-.414.972 0 .288-.192.433-.576.433-.336 0-.702-.12-1.098-.36-.396-.239-.595-.552-.595-.936 0-.408.078-.9.234-1.477s.348-1.157.576-1.746c.228-.588.479-1.127.756-1.619.276-.491.546-.869.81-1.133z"/>
    <path d="M258.405 26.568a.345.345 0 01.252-.108c.168 0 .33.108.486.324.155.216.233.432.233.647a.485.485 0 01-.144.36c-.145.144-.42.414-.828.81-.408.396-.9.853-1.476 1.368a74.542 74.542 0 01-1.872 1.62 31.634 31.634 0 01-1.998 1.548c-.661.469-1.284.858-1.872 1.17-.589.312-1.074.469-1.458.469-.696 0-1.302-.276-1.818-.828a2.793 2.793 0 01-.773-1.98c0-.455.167-1.008.504-1.656.336-.647.707-1.289 1.115-1.926.408-.636.78-1.229 1.116-1.782.336-.552.504-.959.504-1.224 0-.239-.162-.414-.485-.521a7.407 7.407 0 00-1.206-.271c-1.152 1.272-2.101 2.256-2.845 2.952s-1.319 1.206-1.728 1.53c-.408.323-.69.521-.846.594-.156.072-.223.108-.198.108-.24 0-.463-.078-.666-.234-.204-.156-.306-.33-.306-.522 0-.023.083-.119.252-.288.167-.167.438-.432.81-.792l1.477-1.422c.611-.588 1.361-1.337 2.25-2.25a6.594 6.594 0 01-1.837-.575c-.527-.265-.792-.685-.792-1.261 0-.384.181-.833.54-1.35.36-.516.816-1.002 1.368-1.458s1.17-.84 1.854-1.152c.684-.312 1.337-.468 1.961-.468.72 0 1.235.114 1.548.342.312.229.468.534.468.918 0 .504-.216 1.116-.647 1.836a19.45 19.45 0 01-1.584 2.232c.359.12.726.246 1.098.378s.714.301 1.026.504c.312.204.563.456.756.756.191.301.288.666.288 1.099 0 .216-.121.605-.36 1.17-.24.563-.504 1.17-.792 1.817a64.173 64.173 0 00-.792 1.854c-.24.588-.36 1.025-.36 1.313 0 .192.06.288.181.288.167 0 .449-.119.846-.359.396-.24.846-.553 1.35-.937s1.038-.81 1.603-1.278c.563-.468 1.098-.923 1.602-1.367s.954-.847 1.351-1.206c.394-.36.676-.624.844-.792zm-10.763-4.608c0 .36.216.636.647.828a22.59 22.59 0 001.728-1.908c.455-.576.684-.983.684-1.224 0-.145-.084-.216-.252-.216-.096 0-.294.096-.594.287a10.2 10.2 0 00-.936.685c-.323.265-.618.54-.882.828-.264.288-.395.529-.395.72z"/>
    <path d="M280.616 16.344c.288 0 .527.072.72.216.192.145.348.324.469.54.119.217.21.457.27.721s.09.516.09.756c0 .336-.042.63-.126.882s-.21.378-.378.378c.048 0-.048-.054-.288-.162-.24-.107-.594-.233-1.062-.378a14.918 14.918 0 00-1.71-.396 15.656 15.656 0 00-2.269-.217c-.96 1.561-1.92 3.163-2.88 4.807s-1.817 3.168-2.574 4.571a91.807 91.807 0 00-1.854 3.601c-.48.996-.72 1.638-.72 1.926 0 .097.036.145.107.145.24 0 .624-.181 1.152-.54.527-.36 1.121-.804 1.782-1.332a47.882 47.882 0 002.052-1.746l1.944-1.746a94.457 94.457 0 001.458-1.332c.383-.36.587-.54.611-.54.168 0 .33.107.486.324.155.216.234.432.234.647a.486.486 0 01-.145.36l-.9.899c-.456.457-.996.984-1.619 1.584a87.947 87.947 0 01-2.053 1.908 40.515 40.515 0 01-2.195 1.854c-.721.564-1.393 1.025-2.017 1.386s-1.125.54-1.509.54a2.744 2.744 0 01-1.818-.648c-.516-.432-.773-1.031-.773-1.8 0-.336.144-.869.432-1.602s.678-1.584 1.17-2.557a83.858 83.858 0 011.71-3.186c.648-1.152 1.332-2.34 2.053-3.564a201.43 201.43 0 01-3.456 4.068 53.812 53.812 0 01-3.33 3.51c-1.068 1.021-2.047 1.843-2.935 2.467s-1.632.936-2.231.936c-.864 0-1.536-.216-2.017-.648-.48-.432-.72-1.079-.72-1.943 0-.456.149-1.05.45-1.782.3-.731.647-1.47 1.044-2.214.396-.744.798-1.422 1.206-2.034.407-.612.707-1.014.899-1.206.217-.216.492-.324.828-.324.264 0 .54.061.828.181s.546.27.774.449c.228.181.414.36.558.54.145.181.216.331.216.45 0-.072-.168.145-.504.648s-.702 1.098-1.098 1.782a26.358 26.358 0 00-1.08 2.069c-.324.696-.486 1.2-.486 1.512 0 .169.06.253.181.253.264 0 .779-.366 1.548-1.099.768-.731 1.686-1.686 2.754-2.861a178.966 178.966 0 003.492-3.979 317.762 317.762 0 003.726-4.446c-.672.145-1.248.312-1.728.504a3.775 3.775 0 00-.685.324c-.096 0-.144-.132-.144-.396 0-.384.065-.702.197-.954s.36-.468.685-.648c.324-.18.756-.329 1.296-.45.54-.119 1.229-.252 2.07-.396l3.168-3.834c.959-1.164 1.716-2.082 2.268-2.754.408-.624.708-1.008.9-1.152.192-.144.42-.216.684-.216.24 0 .479.061.72.18.24.121.462.265.666.433s.366.348.486.54.18.348.18.468c0 .048-.138.258-.414.63l-1.025 1.386c-.408.553-.853 1.165-1.332 1.836a73.95 73.95 0 00-1.368 1.98 46.893 46.893 0 012.879-.109zm-15.227 2.988c0 .288-.192.432-.576.432-.337 0-.696-.119-1.08-.359s-.576-.552-.576-.937c0-.624.113-1.313.342-2.069.229-.757.517-1.458.864-2.106s.726-1.193 1.134-1.638.792-.666 1.152-.666.714.107 1.062.323c.348.217.666.475.954.774.288.301.517.618.685.954.167.336.252.624.252.864 0 .336-.181.504-.54.504-.265 0-.606.162-1.026.485-.42.324-.828.709-1.224 1.152-.396.444-.732.882-1.008 1.314-.278.433-.415.757-.415.973z"/>
    <path d="M291.38 26.568c.384 0 .685.102.9.306s.324.402.324.594c0 .24-.133.36-.396.36-.48 0-1.074.09-1.782.27a22.34 22.34 0 00-2.304.738 37.48 37.48 0 00-2.592 1.098c-.9.421-1.782.858-2.646 1.314.312.384.564.769.757 1.152.191.384.287.756.287 1.115 0 .696-.264 1.339-.792 1.927a8.015 8.015 0 01-1.872 1.529c-.72.433-1.46.774-2.22 1.026s-1.377.378-1.851.378c-.334 0-.676-.084-1.023-.252s-.666-.378-.954-.63-.521-.54-.702-.864a1.956 1.956 0 01-.27-.954c0-.359.138-.737.414-1.134.275-.396.647-.792 1.116-1.188.468-.396 1.017-.797 1.646-1.205s1.302-.805 2.013-1.188a44.316 44.316 0 01-.871-1.062c-.297-.372-.563-.744-.801-1.116s-.433-.732-.586-1.08a2.45 2.45 0 01-.231-.99c0-.36.136-.786.409-1.278a9.39 9.39 0 011.066-1.512 16.13 16.13 0 011.499-1.53 16.927 16.927 0 011.705-1.35c.576-.396 1.14-.72 1.692-.972s1.031-.378 1.439-.378c.456 0 .876.084 1.261.252.383.168.72.372 1.008.611.288.24.51.511.666.811.155.3.233.57.233.81 0 .504-.103 1.057-.306 1.656a8.998 8.998 0 01-.774 1.692 5.723 5.723 0 01-1.062 1.332c-.396.359-.786.54-1.17.54-.265 0-.504-.055-.72-.162a2.402 2.402 0 01-.559-.378 1.968 1.968 0 01-.378-.469.948.948 0 01-.144-.468c0-.216.119-.324.359-.324.264 0 .563-.174.9-.521a7.89 7.89 0 00.954-1.225c.3-.468.552-.923.756-1.367.203-.444.306-.762.306-.954 0-.096-.036-.145-.107-.145-.48 0-1.062.252-1.746.756a15.702 15.702 0 00-1.998 1.765c-.648.672-1.2 1.338-1.656 1.998s-.684 1.146-.684 1.458c0 .288.18.647.54 1.08.359.432.779.899 1.26 1.403a69.427 69.427 0 013.06-1.296c1.032-.407 1.986-.756 2.862-1.044s1.649-.516 2.322-.684c.674-.167 1.155-.251 1.443-.251zm-10.368 6.552c0-.096-.107-.312-.323-.648-1.272.744-2.328 1.435-3.168 2.07-.841.636-1.261 1.11-1.261 1.422 0 .048.048.072.145.072.191 0 .54-.102 1.044-.306s1.02-.456 1.548-.757a9.86 9.86 0 001.404-.954c.407-.334.611-.634.611-.899z"/>
</svg>
