<svg xmlns="http://www.w3.org/2000/svg" viewBox="-151 398.89 292.604 45">
    <path d="M-69.709 401.123c-.168-.145-.252-.288-.252-.433 0-.144.096-.258.288-.342s.432-.126.72-.126c.312 0 .66.061 1.044.18.383.121.744.312 1.08.576.336.265.618.612.846 1.044.228.433.342.96.342 1.584 0 .504-.21 1.386-.63 2.646s-.996 2.748-1.728 4.464a112.239 112.239 0 01-2.61 5.634 125.613 125.613 0 01-3.24 6.12 99.75 99.75 0 01-3.618 5.922c-1.26 1.908-2.52 3.6-3.78 5.076-1.26 1.476-2.496 2.658-3.708 3.546-1.212.888-2.346 1.332-3.402 1.332-.672 0-1.344-.126-2.016-.378s-1.272-.594-1.8-1.026-.954-.941-1.278-1.529a3.926 3.926 0 01-.486-1.927c0-.792.234-1.974.702-3.546.468-1.571 1.074-3.317 1.818-5.237s1.566-3.906 2.466-5.958c.9-2.053 1.77-3.966 2.61-5.742a720.128 720.128 0 00-4.806 5.184c-1.788 1.944-3.612 3.942-5.472 5.994s-3.685 4.074-5.472 6.066a222.047 222.047 0 00-4.752 5.453c-1.38 1.645-2.497 3.024-3.348 4.141-.852 1.116-1.278 1.817-1.278 2.105 0 .408-.18.612-.54.612-.216 0-.474-.09-.774-.27a3.592 3.592 0 01-.846-.721c-.264-.3-.492-.66-.684-1.08a3.208 3.208 0 01-.288-1.35c0-.384.264-1.104.792-2.16s1.224-2.334 2.088-3.834a182.508 182.508 0 012.97-4.95 2527.858 2527.858 0 006.804-11.052c1.116-1.823 2.106-3.492 2.97-5.004s1.56-2.808 2.088-3.888c.527-1.08.792-1.824.792-2.232 0-.12-.036-.21-.108-.27-.072-.06-.24-.091-.504-.091-.504 0-1.308.103-2.412.307-1.104.204-2.388.48-3.852.828s-3.048.756-4.752 1.224c-1.704.468-3.408.972-5.112 1.512-1.705.54-3.342 1.099-4.914 1.675a53.623 53.623 0 00-4.176 1.71c-1.212.563-2.178 1.11-2.898 1.638s-1.08 1.008-1.08 1.439c0 .505-.18.757-.54.757-.168 0-.36-.072-.576-.217-.216-.144-.42-.335-.612-.575s-.354-.528-.486-.864-.198-.685-.198-1.044c0-.552.372-1.128 1.116-1.729.744-.6 1.746-1.193 3.006-1.781s2.706-1.171 4.338-1.746a98.812 98.812 0 015.094-1.639 128.098 128.098 0 0110.242-2.538 85.036 85.036 0 014.068-.737c1.176-.181 2.04-.271 2.592-.271s1.08.12 1.584.36.948.546 1.332.918.689.798.918 1.278c.228.479.342.948.342 1.403 0 .408-.246 1.134-.738 2.179a70.271 70.271 0 01-1.944 3.762 214.378 214.378 0 01-2.754 4.842 1440.33 1440.33 0 01-3.186 5.418 555.533 555.533 0 00-3.222 5.526 169.366 169.366 0 00-2.844 5.13 317.66 317.66 0 014.383-5.076 466.418 466.418 0 015.122-5.724 860.844 860.844 0 015.285-5.761c1.755-1.896 3.377-3.642 4.865-5.237a423.571 423.571 0 013.872-4.104 180.013 180.013 0 012.322-2.394c.192-.192.444-.288.756-.288.24 0 .492.066.756.198a3.33 3.33 0 011.26 1.097c.144.216.216.42.216.612 0 .168-.048.3-.144.396-.192.192-.486.63-.882 1.314s-.858 1.548-1.386 2.592-1.098 2.214-1.71 3.51-1.224 2.646-1.836 4.05-1.2 2.826-1.764 4.267c-.564 1.439-1.062 2.82-1.494 4.14s-.78 2.532-1.044 3.636-.396 2.028-.396 2.772c0 .552.084.99.251 1.313.167.324.443.486.827.486.599 0 1.347-.384 2.246-1.152.898-.768 1.869-1.806 2.911-3.113a63.213 63.213 0 003.252-4.519 98.047 98.047 0 003.306-5.382 131.492 131.492 0 003.09-5.724 90.674 90.674 0 002.587-5.509c.743-1.739 1.33-3.329 1.761-4.77s.647-2.604.647-3.492c.001-.692-.131-1.173-.395-1.436zm25.992 25.559c.072-.072.144-.108.216-.108.192 0 .366.108.522.324s.234.433.234.648c0 .168-.048.3-.144.396-.144.145-.42.408-.828.792-.408.385-.9.834-1.476 1.351a60.97 60.97 0 01-1.89 1.62 35.921 35.921 0 01-2.016 1.548c-.66.468-1.278.858-1.854 1.17s-1.056.468-1.44.468a2.375 2.375 0 01-1.854-.828c-.492-.552-.738-1.212-.738-1.979 0-.312.048-.696.144-1.152s.228-.941.396-1.458c.168-.516.348-1.056.54-1.62.192-.563.396-1.109.612-1.638a35.475 35.475 0 00-2.718 2.357 54.106 54.106 0 00-2.718 2.772 32.203 32.203 0 00-2.106 2.538c-.564.769-.846 1.32-.846 1.656 0 .456-.18.684-.54.684-.192 0-.414-.077-.666-.234a2.816 2.816 0 01-.702-.63 3.758 3.758 0 01-.558-.972 3.298 3.298 0 01-.234-1.26c0-.408.144-1.014.432-1.818s.672-1.674 1.152-2.61a63.556 63.556 0 01-2.43 1.891c-.828.611-1.644 1.158-2.448 1.638s-1.566.864-2.286 1.152c-.72.288-1.368.432-1.944.432-.864 0-1.536-.216-2.016-.647-.48-.433-.72-1.08-.72-1.944 0-.456.149-1.05.45-1.782.3-.731.648-1.47 1.044-2.214.396-.743.797-1.422 1.206-2.034.408-.612.708-1.014.9-1.206.216-.216.492-.324.828-.324.264 0 .54.061.828.181.288.12.546.27.774.45.228.18.414.359.558.54.144.18.216.33.216.449 0-.048-.175.175-.522.666a22.756 22.756 0 00-1.134 1.801 36.517 36.517 0 00-1.134 2.124c-.348.708-.522 1.254-.522 1.638 0 .265.108.396.324.396.288 0 .708-.149 1.26-.449s1.175-.685 1.872-1.152a44.697 44.697 0 002.196-1.584c.768-.588 1.506-1.17 2.214-1.746s1.362-1.116 1.962-1.62c.6-.504 1.068-.912 1.404-1.224.288-.216.486-.384.594-.504s.294-.181.558-.181c.24 0 .48.061.72.181.239.12.461.264.666.432.204.168.365.349.486.54.12.192.18.348.18.468 0 .072-.013.12-.036.145-.625.624-1.272 1.398-1.944 2.321a17.57 17.57 0 00-1.764 3.042 38.147 38.147 0 012.664-2.754 54.558 54.558 0 012.844-2.502c.912-.743 1.728-1.35 2.448-1.817.72-.469 1.224-.702 1.512-.702.24 0 .48.06.72.18s.456.265.648.432c.192.169.348.343.468.522s.18.33.18.45c0 .071-.012.12-.036.144-.24.24-.51.679-.81 1.314-.3.636-.588 1.332-.864 2.088s-.504 1.506-.684 2.25-.27 1.332-.27 1.764c0 .456.108.685.324.685.167 0 .45-.12.846-.36a15.34 15.34 0 001.35-.937c.504-.383 1.038-.81 1.602-1.277a73.703 73.703 0 001.602-1.368c.504-.443.954-.846 1.35-1.206s.678-.631.846-.799zm-21.312-7.164c0 .288-.192.432-.576.432-.336 0-.696-.119-1.08-.359s-.576-.552-.576-.937c0-.623.114-1.313.342-2.069.228-.756.516-1.458.864-2.106a8.063 8.063 0 011.134-1.638c.408-.444.792-.666 1.152-.666.36 0 .714.107 1.062.324.348.216.666.474.954.773.288.301.516.618.684.954.168.337.252.624.252.864 0 .336-.18.504-.54.504-.265 0-.606.162-1.026.486-.42.323-.828.708-1.224 1.151-.396.444-.732.882-1.008 1.314-.276.433-.414.757-.414.973z"/>
    <path d="M-29.893 426.826a.348.348 0 01.252-.107c.192 0 .36.103.504.306.144.204.216.414.216.63a.532.532 0 01-.144.396c-.216.216-.576.57-1.08 1.062s-1.11 1.044-1.818 1.656-1.494 1.236-2.358 1.872-1.77 1.224-2.718 1.764c-.949.54-1.92.979-2.916 1.314a9.149 9.149 0 01-2.934.504c-.504 0-.966-.096-1.386-.288a3.463 3.463 0 01-1.08-.756 3.612 3.612 0 01-.72-1.098c-.18-.42-.27-.858-.27-1.314 0-.576.162-1.278.486-2.105.324-.828.756-1.692 1.296-2.593.54-.899 1.146-1.8 1.818-2.699.671-.9 1.355-1.704 2.052-2.412.696-.708 1.374-1.284 2.034-1.729.66-.443 1.229-.666 1.71-.666.456 0 .876.085 1.26.252.384.168.708.378.972.63s.474.528.63.828c.156.301.234.57.234.811 0 .624-.234 1.41-.702 2.357-.468.948-1.098 1.891-1.89 2.826a14.697 14.697 0 01-2.772 2.521c-1.056.744-2.172 1.2-3.348 1.367a.818.818 0 01-.018.162.77.77 0 00-.018.162c0 .889.468 1.332 1.404 1.332.624 0 1.314-.144 2.07-.432s1.518-.66 2.286-1.116c.768-.456 1.53-.96 2.286-1.512a42.945 42.945 0 004.662-3.925zm-5.976-4.787c-.192 0-.535.246-1.026.737a20.286 20.286 0 00-1.62 1.872 38.823 38.823 0 00-1.782 2.502c-.6.913-1.092 1.8-1.476 2.664.48-.072.966-.288 1.458-.647.492-.36.96-.786 1.404-1.278.444-.491.858-1.026 1.242-1.602s.72-1.135 1.008-1.675.51-1.02.666-1.439c.156-.42.234-.726.234-.918 0-.145-.036-.216-.108-.216z"/>
    <path d="M-15.385 426.791c.383 0 .684.102.9.306.216.204.324.402.324.594 0 .24-.132.36-.396.36-.48 0-1.074.09-1.782.27a22.34 22.34 0 00-2.304.738 37.48 37.48 0 00-2.592 1.098c-.9.421-1.782.858-2.646 1.314.312.384.563.769.756 1.152.192.384.288.756.288 1.115 0 .696-.265 1.339-.792 1.927a8.056 8.056 0 01-1.872 1.529c-.72.433-1.46.774-2.22 1.026s-1.377.378-1.851.378a2.34 2.34 0 01-1.023-.252c-.348-.168-.666-.378-.954-.63s-.522-.54-.702-.864-.27-.642-.27-.954c0-.359.138-.737.414-1.134.275-.396.648-.792 1.116-1.188.468-.396 1.017-.797 1.647-1.205s1.301-.805 2.013-1.188a42.026 42.026 0 01-.871-1.062 13.11 13.11 0 01-.8-1.116c-.238-.372-.433-.732-.587-1.08s-.231-.678-.231-.99c0-.36.136-.786.409-1.278a9.4 9.4 0 011.067-1.512c.439-.516.938-1.025 1.5-1.53.56-.504 1.129-.953 1.705-1.35.576-.396 1.14-.72 1.692-.972s1.032-.378 1.44-.378c.456 0 .875.084 1.26.252.384.168.72.372 1.008.611.288.24.51.511.666.811s.234.57.234.81c0 .504-.103 1.057-.306 1.656a8.998 8.998 0 01-.774 1.692 5.723 5.723 0 01-1.062 1.332c-.396.359-.787.54-1.17.54-.265 0-.504-.055-.72-.162a2.396 2.396 0 01-.558-.378 1.968 1.968 0 01-.378-.469.948.948 0 01-.144-.468c0-.216.12-.324.36-.324.264 0 .563-.174.9-.521.335-.348.653-.756.954-1.225.3-.468.552-.923.756-1.367s.306-.762.306-.954c0-.096-.036-.145-.108-.145-.48 0-1.062.252-1.746.756a15.84 15.84 0 00-1.998 1.765 15.93 15.93 0 00-1.656 1.998c-.456.66-.684 1.146-.684 1.458 0 .288.18.647.54 1.08.36.432.78.899 1.26 1.403a69.941 69.941 0 013.06-1.296 52.32 52.32 0 012.862-1.044c.876-.288 1.65-.516 2.322-.684s1.15-.251 1.438-.251zm-10.368 6.552c0-.096-.108-.312-.324-.648-1.272.744-2.328 1.435-3.168 2.07-.84.636-1.26 1.11-1.26 1.422 0 .048.048.072.144.072.192 0 .54-.102 1.044-.306.504-.204 1.02-.456 1.548-.757.528-.3.996-.617 1.404-.954.408-.335.612-.635.612-.899zm37.8-8.821c.672 0 1.236.108 1.692.324s.828.475 1.116.774.492.618.612.953c.12.337.18.625.18.864 0 .337-.084.504-.252.504-.121 0-.366-.126-.738-.378s-.822-.378-1.35-.378c-.553 0-1.183.097-1.89.288-.708.192-1.471.45-2.286.774-.816.323-1.662.714-2.538 1.17s-1.758.936-2.646 1.439c.432.841.984 1.5 1.656 1.98.671.48 1.488.72 2.448.72.456 0 .846-.084 1.17-.252s.6-.348.828-.54c.228-.191.42-.372.576-.54s.306-.252.45-.252c.192 0 .288.168.288.504 0 .288-.084.648-.252 1.08s-.438.846-.81 1.242-.846.732-1.422 1.008-1.272.414-2.088.414c-1.224 0-2.256-.365-3.096-1.098-.84-.732-1.5-1.71-1.98-2.935-1.2.744-2.346 1.488-3.438 2.232s-2.076 1.435-2.952 2.069a67.126 67.126 0 00-2.178 1.639c-.576.455-.948.768-1.116.936-.192.192-.348.288-.468.288-.121 0-.198-.054-.234-.162a1.188 1.188 0 01-.054-.378c0-.48.12-.888.36-1.224.24-.337.648-.744 1.224-1.225-.24-.144-.444-.335-.612-.575s-.252-.54-.252-.9c0-.815.239-1.661.72-2.538.48-.876 1.128-1.775 1.944-2.7.816-.923 1.746-1.854 2.79-2.79s2.13-1.872 3.258-2.808c.096-1.8.36-3.582.792-5.346.432-1.765 1.008-3.349 1.728-4.752.72-1.404 1.566-2.544 2.538-3.42s2.045-1.314 3.222-1.314a3.6 3.6 0 011.53.342c.491.229.918.54 1.278.937.36.396.648.852.864 1.368a4.11 4.11 0 01.324 1.602c0 1.152-.3 2.25-.9 3.294-.6 1.044-1.386 2.07-2.358 3.078s-2.064 2.004-3.276 2.988-2.43 1.968-3.654 2.951c.023 1.009.156 1.993.396 2.952a85.517 85.517 0 012.628-1.638c.864-.516 1.686-.966 2.466-1.35s1.488-.685 2.124-.9c.636-.215 1.182-.321 1.638-.321zm-16.993 10.044c.84-.647 1.776-1.355 2.808-2.124a96.099 96.099 0 013.24-2.304 13.435 13.435 0 01-.234-1.278 15.702 15.702 0 01-.126-1.35 34.895 34.895 0 00-3.492 3.402c-1.031 1.165-1.763 2.383-2.196 3.654zM9.49 410.411c-.84 0-1.626.342-2.358 1.025-.732.685-1.386 1.578-1.962 2.683-.576 1.104-1.062 2.37-1.458 3.798s-.666 2.874-.81 4.338c1.08-.888 2.112-1.77 3.096-2.646s1.859-1.728 2.628-2.556c.768-.828 1.38-1.62 1.836-2.376s.684-1.47.684-2.143c0-.575-.126-1.073-.378-1.493s-.678-.63-1.278-.63zm54.792 3.096c0 .816-.205 1.597-.612 2.34-.408.744-.96 1.464-1.656 2.16a14.977 14.977 0 01-2.466 1.962c-.948.612-1.962 1.176-3.042 1.692s-2.196.984-3.348 1.403c-1.152.42-2.292.774-3.42 1.062.792.216 1.548.474 2.268.773.72.301 1.35.648 1.89 1.044s.972.847 1.296 1.351.486 1.068.486 1.691c0 1.129-.438 2.202-1.314 3.223s-2.022 1.956-3.438 2.808c-1.416.853-3.012 1.62-4.788 2.304a50.18 50.18 0 01-5.346 1.729c-1.788.468-3.504.828-5.148 1.08s-3.03.378-4.158.378c-.72 0-1.266-.204-1.638-.612-.373-.408-.558-.805-.558-1.188 0-.385.126-.589.378-.612.252-.024.618-.072 1.098-.145a2.953 2.953 0 01-.396-1.512c0-.527.306-1.458.918-2.79s1.416-2.903 2.412-4.716a198.167 198.167 0 013.402-5.922 418.536 418.536 0 0111.232-17.821 56.84 56.84 0 00-7.056-.432c-1.92 0-3.762.103-5.526.306-1.764.204-3.318.504-4.662.9s-2.412.906-3.204 1.53-1.188 1.346-1.188 2.161c0 .217-.108.324-.324.324-.144 0-.318-.054-.522-.162a2.044 2.044 0 01-.576-.468 2.793 2.793 0 01-.45-.702 2.132 2.132 0 01-.18-.899c0-.888.468-1.687 1.404-2.395.936-.707 2.19-1.313 3.762-1.818 1.572-.504 3.378-.887 5.418-1.151s4.176-.396 6.408-.396c1.416 0 2.832.055 4.248.162 1.416.108 2.808.282 4.176.522.432-.624.762-1.104.99-1.44s.42-.576.576-.72c.156-.145.288-.228.396-.252a1.843 1.843 0 011.17.144c.264.121.504.271.72.45.216.18.39.36.522.54.131.18.198.33.198.45 0 .048-.048.132-.144.252a7.87 7.87 0 01-.342.396c-.132.145-.276.295-.432.45a3.059 3.059 0 00-.378.45c1.56.408 3.006.924 4.338 1.548 1.332.625 2.49 1.351 3.474 2.178.984.828 1.752 1.776 2.304 2.845.552 1.067.828 2.249.828 3.545zm-10.368 15.408c0-.433-.229-.811-.684-1.135-.456-.323-1.062-.611-1.818-.863a17.651 17.651 0 00-2.628-.63 45.7 45.7 0 00-3.132-.414 74.595 74.595 0 00-3.294-.252 99.542 99.542 0 00-3.096-.126c-1.296 2.424-2.407 4.692-3.33 6.804-.924 2.112-1.554 3.888-1.89 5.328a41.645 41.645 0 004.428-.937 67.998 67.998 0 004.518-1.368 55.034 55.034 0 004.194-1.619 37.531 37.531 0 003.474-1.711c.996-.563 1.788-1.109 2.376-1.638.587-.527.882-1.008.882-1.439zm-13.284-5.977c1.392-.023 2.898-.186 4.518-.485s3.24-.696 4.86-1.188a41.3 41.3 0 004.68-1.728c1.5-.66 2.826-1.38 3.978-2.16s2.076-1.603 2.772-2.466c.696-.864 1.044-1.74 1.044-2.629 0-.792-.282-1.529-.846-2.214-.564-.684-1.338-1.302-2.322-1.854s-2.142-1.038-3.474-1.458-2.766-.774-4.302-1.062A83.753 83.753 0 0049 409.295c-.9 1.344-1.824 2.76-2.772 4.248-.948 1.488-1.896 3.03-2.844 4.626s-1.867 3.185-2.754 4.769zm34.344 3.888a.347.347 0 01.252-.107c.191 0 .36.103.504.306.144.204.216.414.216.63a.532.532 0 01-.144.396c-.216.216-.576.57-1.08 1.062s-1.11 1.044-1.818 1.656a38.883 38.883 0 01-2.357 1.872c-.864.636-1.771 1.224-2.719 1.764s-1.92.979-2.916 1.314a9.149 9.149 0 01-2.934.504c-.504 0-.966-.096-1.386-.288a3.463 3.463 0 01-1.08-.756 3.612 3.612 0 01-.72-1.098c-.18-.42-.27-.858-.27-1.314 0-.576.162-1.278.486-2.105.324-.828.756-1.692 1.296-2.593.54-.899 1.146-1.8 1.818-2.699.671-.9 1.355-1.704 2.052-2.412.696-.708 1.374-1.284 2.034-1.729.66-.443 1.23-.666 1.71-.666.455 0 .875.085 1.26.252.384.168.707.378.972.63.264.252.474.528.63.828.156.301.234.57.234.811 0 .624-.234 1.41-.702 2.357-.468.948-1.098 1.891-1.89 2.826a14.728 14.728 0 01-2.772 2.521c-1.056.744-2.172 1.2-3.348 1.367a.818.818 0 01-.018.162.77.77 0 00-.018.162c0 .889.468 1.332 1.404 1.332.624 0 1.314-.144 2.07-.432s1.519-.66 2.286-1.116c.767-.456 1.53-.96 2.286-1.512a43.446 43.446 0 003.69-3.006c.455-.42.779-.727.972-.919zm-5.977-4.787c-.192 0-.534.246-1.025.737a20.286 20.286 0 00-1.62 1.872 38.823 38.823 0 00-1.782 2.502c-.6.913-1.092 1.8-1.476 2.664.48-.072.966-.288 1.458-.647.492-.36.96-.786 1.404-1.278.444-.491.858-1.026 1.242-1.602.384-.576.721-1.135 1.008-1.675.288-.54.51-1.02.666-1.439.156-.419.234-.726.234-.918 0-.145-.036-.216-.109-.216z"/>
    <path d="M88.797 426.826a.347.347 0 01.252-.107c.191 0 .36.103.504.306.144.204.216.414.216.63a.532.532 0 01-.144.396c-.216.216-.576.57-1.08 1.062s-1.11 1.044-1.818 1.656a38.883 38.883 0 01-2.357 1.872c-.864.636-1.771 1.224-2.719 1.764s-1.92.979-2.916 1.314-1.974.504-2.934.504a3.29 3.29 0 01-1.386-.288 3.452 3.452 0 01-1.08-.756 3.633 3.633 0 01-.721-1.098c-.18-.42-.27-.858-.27-1.314 0-.576.162-1.278.486-2.105.323-.828.756-1.692 1.296-2.593.54-.899 1.146-1.8 1.817-2.699.672-.9 1.356-1.704 2.053-2.412.695-.708 1.373-1.284 2.033-1.729.66-.443 1.23-.666 1.711-.666.455 0 .875.085 1.26.252.384.168.707.378.972.63.264.252.474.528.63.828.156.301.234.57.234.811 0 .624-.234 1.41-.702 2.357-.468.948-1.098 1.891-1.89 2.826a14.728 14.728 0 01-2.772 2.521c-1.057.744-2.172 1.2-3.348 1.367a.824.824 0 01-.019.162.843.843 0 00-.018.162c0 .889.468 1.332 1.404 1.332.623 0 1.313-.144 2.069-.432s1.518-.66 2.286-1.116c.768-.456 1.53-.96 2.286-1.512a43.446 43.446 0 003.69-3.006c.459-.42.783-.727.975-.919zm-5.976-4.787c-.192 0-.534.246-1.025.737a20.286 20.286 0 00-1.62 1.872 38.437 38.437 0 00-1.782 2.502c-.6.913-1.092 1.8-1.476 2.664.479-.072.966-.288 1.458-.647a9.31 9.31 0 001.403-1.278c.444-.491.858-1.026 1.242-1.602s.721-1.135 1.008-1.675c.288-.54.51-1.02.666-1.439.156-.419.234-.726.234-.918 0-.145-.036-.216-.108-.216z"/>
    <path d="M102.586 426.791a.345.345 0 01.252-.108c.168 0 .33.108.486.324.155.216.233.432.233.647a.485.485 0 01-.144.36c-.145.144-.42.414-.828.81s-.9.853-1.476 1.368a74.542 74.542 0 01-1.872 1.62 31.36 31.36 0 01-1.999 1.548c-.661.469-1.284.858-1.872 1.17-.589.312-1.074.469-1.458.469-.696 0-1.303-.276-1.818-.828a2.793 2.793 0 01-.773-1.98c0-.455.167-1.008.504-1.656.336-.647.707-1.289 1.115-1.926.408-.636.78-1.229 1.116-1.782.336-.552.504-.959.504-1.224 0-.239-.162-.414-.485-.521a7.431 7.431 0 00-1.206-.271c-1.152 1.272-2.101 2.256-2.845 2.952-.744.696-1.319 1.206-1.728 1.53-.408.323-.69.521-.846.594-.156.072-.223.108-.198.108-.24 0-.463-.078-.666-.234-.204-.156-.306-.33-.306-.522 0-.023.083-.119.252-.288.167-.167.438-.432.81-.792l1.477-1.422c.611-.588 1.361-1.337 2.25-2.25a6.594 6.594 0 01-1.837-.575c-.527-.265-.792-.685-.792-1.261 0-.384.181-.833.54-1.35a7.384 7.384 0 011.368-1.458 8.307 8.307 0 011.854-1.152c.684-.312 1.337-.468 1.962-.468.72 0 1.235.114 1.548.342.312.229.468.534.468.918 0 .504-.216 1.116-.647 1.836a19.45 19.45 0 01-1.584 2.232c.359.12.726.246 1.098.378.372.132.714.301 1.026.504.312.204.563.456.756.756.191.301.288.666.288 1.099 0 .216-.121.605-.36 1.17-.24.563-.504 1.17-.792 1.817a64.173 64.173 0 00-.792 1.854c-.24.588-.36 1.025-.36 1.313 0 .192.06.288.181.288.167 0 .449-.119.846-.359.396-.24.846-.553 1.35-.937.504-.384 1.038-.81 1.603-1.278a73.738 73.738 0 001.602-1.367c.504-.444.954-.847 1.351-1.206.394-.361.676-.624.844-.792zm-10.764-4.609c0 .36.216.636.647.828a22.793 22.793 0 001.729-1.908c.455-.576.684-.983.684-1.224 0-.145-.084-.216-.252-.216-.096 0-.294.096-.594.287-.301.192-.612.421-.937.685-.323.265-.618.54-.882.828-.265.289-.395.529-.395.72z"/>
    <path d="M117.093 426.791c.384 0 .685.102.9.306.215.204.324.402.324.594 0 .24-.133.36-.396.36-.48 0-1.074.09-1.782.27a22.34 22.34 0 00-2.304.738 37.48 37.48 0 00-2.592 1.098c-.9.421-1.782.858-2.646 1.314.312.384.564.769.757 1.152.191.384.287.756.287 1.115 0 .696-.264 1.339-.792 1.927a8.015 8.015 0 01-1.872 1.529c-.72.433-1.46.774-2.22 1.026-.76.252-1.377.378-1.851.378-.334 0-.676-.084-1.023-.252s-.666-.378-.954-.63a3.24 3.24 0 01-.702-.864 1.956 1.956 0 01-.27-.954c0-.359.138-.737.414-1.134.275-.396.647-.792 1.116-1.188.468-.396 1.017-.797 1.646-1.205s1.302-.805 2.013-1.188a44.316 44.316 0 01-.871-1.062 13.128 13.128 0 01-.801-1.116 7.956 7.956 0 01-.586-1.08 2.45 2.45 0 01-.231-.99c0-.36.136-.786.409-1.278a9.39 9.39 0 011.066-1.512 16.13 16.13 0 011.499-1.53 16.927 16.927 0 011.705-1.35c.576-.396 1.14-.72 1.692-.972s1.031-.378 1.439-.378c.456 0 .876.084 1.261.252.383.168.72.372 1.008.611.288.24.51.511.666.811.155.3.233.57.233.81 0 .504-.103 1.057-.306 1.656a8.998 8.998 0 01-.774 1.692 5.723 5.723 0 01-1.062 1.332c-.396.359-.786.54-1.17.54-.265 0-.504-.055-.72-.162a2.402 2.402 0 01-.559-.378 1.968 1.968 0 01-.378-.469.948.948 0 01-.144-.468c0-.216.119-.324.359-.324.264 0 .563-.174.9-.521a7.89 7.89 0 00.954-1.225c.3-.468.552-.923.756-1.367.203-.444.306-.762.306-.954 0-.096-.036-.145-.107-.145-.48 0-1.062.252-1.746.756a15.702 15.702 0 00-1.998 1.765c-.648.672-1.2 1.338-1.656 1.998-.456.66-.684 1.146-.684 1.458 0 .288.18.647.54 1.08.359.432.779.899 1.26 1.403a69.427 69.427 0 013.06-1.296 52.931 52.931 0 012.862-1.044 33.664 33.664 0 012.322-.684c.674-.167 1.154-.251 1.443-.251zm-10.369 6.552c0-.096-.107-.312-.323-.648-1.272.744-2.328 1.435-3.168 2.07-.841.636-1.261 1.11-1.261 1.422 0 .048.048.072.145.072.191 0 .54-.102 1.044-.306.504-.204 1.02-.456 1.548-.757a9.86 9.86 0 001.404-.954c.407-.335.611-.635.611-.899z"/>
</svg>
